<svg width="21" height="20" viewBox="0 0 21 20" fill="none" xmlns="http://www.w3.org/2000/svg">
  <g clip-path="url(#clip0_9890_3541)">
    <path d="M20.4895 10.1868C20.4895 9.36743 20.4214 8.76949 20.2742 8.14941H10.6992V11.8477H16.3195C16.2062 12.7668 15.5943 14.1509 14.2346 15.081L14.2155 15.2048L17.2429 17.4967L17.4527 17.5171C19.3789 15.7787 20.4895 13.2208 20.4895 10.1868Z" fill="#4285F4"/>
    <path d="M10.6993 19.9312C13.4527 19.9312 15.7643 19.0453 17.4527 17.5173L14.2346 15.0812C13.3734 15.6681 12.2176 16.0777 10.6993 16.0777C8.00242 16.0777 5.71352 14.3393 4.89759 11.9365L4.77799 11.9464L1.63003 14.3271L1.58887 14.439C3.26588 17.6944 6.7106 19.9312 10.6993 19.9312Z" fill="#34A853"/>
    <path d="M4.89748 11.9363C4.68219 11.3163 4.55759 10.6518 4.55759 9.96534C4.55759 9.27878 4.68219 8.61443 4.88615 7.99435L4.88045 7.86229L1.69304 5.44336L1.58876 5.49183C0.897576 6.84275 0.500977 8.35977 0.500977 9.96534C0.500977 11.5709 0.897576 13.0879 1.58876 14.4388L4.89748 11.9363Z" fill="#FBBC05"/>
    <path d="M10.6993 3.85336C12.6142 3.85336 13.906 4.66168 14.6425 5.33718L17.5207 2.59107C15.753 0.985496 13.4527 0 10.6993 0C6.7106 0 3.26588 2.23672 1.58887 5.49214L4.88626 7.99466C5.71352 5.59183 8.00242 3.85336 10.6993 3.85336Z" fill="#EB4335"/>
  </g>
  <defs>
    <clipPath id="clip0_9890_3541">
      <rect width="20" height="20" fill="white" transform="translate(0.5)"/>
    </clipPath>
  </defs>
</svg>
