<svg width="204" height="32" viewBox="0 0 204 32" fill="none" xmlns="http://www.w3.org/2000/svg">
<path d="M31.0613 3.33621C29.6174 1.49303 27.4482 0.310499 24.9494 0.0132135L24.8505 0H7.74779L7.69505 0.00660473C7.60274 0.0198174 7.51044 0.0330309 7.41814 0.05285H7.38517C5.58523 0.376561 4.14791 1.16932 3.10619 2.41132L2.96773 2.58969C2.26226 3.49476 1.75459 4.63766 1.45789 5.97874L1.18098 7.26038C0.765608 9.22246 0.468915 10.8476 0.27112 12.235V12.2614C0.27112 12.2746 0.264526 12.2944 0.257932 12.3076C0.192001 12.8031 0.132662 13.2589 0.0931028 13.6751C0.0931028 13.6751 0.0931028 13.6751 0.0931028 13.6817C0.0865096 13.7874 0.0799172 13.8865 0.073324 13.9856C0.0403581 14.4415 0.0205769 14.8973 0.0139838 15.3598C-0.0189822 17.1765 0.17222 18.9999 1.00296 20.6514C1.48426 21.6028 2.15018 22.4616 2.94136 23.1751C4.3589 24.4567 6.15224 25.2495 8.07086 25.3882H8.1236H8.17635C8.2225 25.3882 8.27525 25.3882 8.3214 25.3882C8.36755 25.3882 8.4203 25.3882 8.46645 25.3882H15.0201C15.9893 25.3882 16.9519 25.3882 17.9211 25.3882H23.5319C23.5319 25.3882 23.5451 25.3882 23.5583 25.3882H23.5846C24.0989 25.7714 24.6066 26.28 25.0483 26.7293C25.2395 26.9275 25.4307 27.1257 25.6219 27.3238C25.6747 27.3767 25.7274 27.4362 25.7802 27.489C25.8263 27.5419 25.8791 27.5947 25.9252 27.641C25.9845 27.707 26.0505 27.7731 26.1098 27.8458L26.1428 27.8788C26.1758 27.9118 26.2021 27.9515 26.2351 27.9845C26.3142 28.0704 26.3999 28.1629 26.4856 28.2487L27.0395 28.8367L29.1031 30.997L29.4064 31.3141L29.4196 31.3273C29.4196 31.3339 29.9602 31.8954 29.9602 31.8954L30.4481 28.3544L30.4613 28.2818L30.5602 27.5881L30.5734 27.522L31.7206 19.0395C32.1624 16.1657 32.6634 12.9088 32.9206 10.0813C33.1513 7.56427 32.4854 5.17277 31.0613 3.34942V3.33621ZM29.024 7.74924L29.0108 7.93422C28.7603 10.6428 28.2658 13.8073 27.8306 16.6017L27.046 22.3559C26.9603 22.9967 26.868 23.6375 26.7823 24.2717C26.7428 24.2321 26.7098 24.1924 26.6702 24.1594C26.5713 24.0603 26.4658 23.9546 26.3669 23.8489L25.7472 23.2213L25.3318 22.8117C24.8967 22.3955 24.534 22.0718 24.1714 21.8009L23.9275 21.616C23.4923 21.3055 23.0242 21.1601 22.4572 21.1601H16.6354C15.6398 21.1601 14.6377 21.1601 13.6421 21.1601H10.5697H6.81815C6.73244 21.1601 6.64673 21.1601 6.56761 21.1601C3.79188 21.0016 1.15461 18.6431 0.805166 16.0072L0.791983 15.875C0.712865 15.1351 0.791982 13.9526 1.00956 12.3671V12.3142C1.20735 10.9533 1.49745 9.34798 1.90623 7.41893L2.18314 6.1373C2.45346 4.90852 2.91499 3.86471 3.54793 3.05213L3.6798 2.88697C4.58966 1.79032 5.86874 1.09005 7.47088 0.799366H7.50385C7.51703 0.79276 7.53022 0.792763 7.5434 0.786157C7.61593 0.772944 7.68845 0.759731 7.76098 0.753125H23.3209C26.9999 1.20236 29.2943 4.01666 29.0306 7.75585L29.024 7.74924Z" fill="white"/>
<path d="M0.112796 13.378C0.152355 13.0014 0.19851 12.6314 0.251255 12.2549C0.251255 12.2681 0.251255 12.2879 0.251255 12.3077C0.185324 12.8032 0.125985 13.259 0.0864258 13.6752C0.093019 13.5762 0.0996097 13.4771 0.112796 13.378Z" fill="white"/>
<path d="M0.00742354 15.3597C0.0140167 14.8972 0.0403911 14.4414 0.0667638 13.9855C0.0667638 13.8798 0.0799494 13.7807 0.0865426 13.6816C0.0272039 14.3357 -0.00576123 14.8972 0.000831959 15.3597H0.00742354Z" fill="white"/>
<path d="M9.69928 16.0997C8.67734 16.0997 7.80045 15.8817 7.06201 15.4457C6.32357 14.9964 5.75656 14.382 5.36097 13.5959C4.96538 12.7965 4.76099 11.8848 4.76099 10.8542C4.76099 9.82365 4.95878 8.88555 5.36097 8.09939C5.75656 7.30003 6.33017 6.67903 7.06201 6.2298C7.80045 5.77396 8.67734 5.54274 9.69928 5.54274C10.7212 5.54274 11.9871 5.85984 12.7849 6.49405C13.5893 7.12826 14.0903 8.01351 14.2881 9.16302H11.9014C11.7827 8.64772 11.5388 8.25134 11.1564 7.96727C10.7806 7.67659 10.2861 7.53125 9.6861 7.53125C9.08612 7.53125 8.6246 7.66998 8.21582 7.94084C7.82023 8.2117 7.51034 8.59487 7.29936 9.09035C7.09497 9.57922 6.99608 10.1672 6.99608 10.8542C6.99608 11.5413 7.09497 12.1094 7.29936 12.6049C7.51034 13.0938 7.82023 13.4704 8.21582 13.7412C8.6246 14.0055 9.11249 14.1376 9.6861 14.1376C10.2597 14.1376 10.774 14.0121 11.1432 13.761C11.519 13.4968 11.7761 13.1268 11.9014 12.638H14.2881C14.0969 13.7148 13.5959 14.567 12.7849 15.1946C11.9871 15.809 10.9586 16.1129 9.69928 16.1129V16.0997ZM19.833 16.0997C18.8638 16.0997 18.0133 15.8883 17.2814 15.4589C16.5628 15.0228 16.0024 14.4151 15.6068 13.6355C15.2112 12.856 15.0068 11.9509 15.0068 10.9071C15.0068 9.86329 15.2112 8.92519 15.62 8.11922C16.0353 7.31324 16.6353 6.67903 17.4133 6.22319C18.1913 5.76736 19.1144 5.53613 20.1956 5.53613C21.2769 5.53613 22.4109 5.82681 23.2087 6.41478C24.0131 6.99613 24.534 7.80872 24.7647 8.83931H22.3318C22.1868 8.42971 21.9296 8.11261 21.5604 7.88799C21.2044 7.66338 20.7429 7.55107 20.1759 7.55107C19.6088 7.55107 18.9957 7.6898 18.5605 7.97388C18.1254 8.24474 17.7957 8.63451 17.5716 9.1432C17.3474 9.63868 17.2353 10.2266 17.2353 10.9071C17.2353 11.5875 17.3474 12.2019 17.5716 12.6842C17.7957 13.1731 18.1188 13.543 18.5473 13.7941C18.9759 14.0385 19.477 14.1574 20.0638 14.1574C20.9011 14.1574 21.5275 13.9394 21.956 13.5034C22.3912 13.0674 22.6615 12.519 22.7538 11.8518H20.3802V10.22H24.9361V15.9279H22.9252L22.7538 14.7454C22.5494 15.0361 22.3055 15.2871 22.0285 15.4919C21.7582 15.6967 21.4352 15.8486 21.0659 15.9411C20.7099 16.0468 20.2945 16.0997 19.8264 16.0997H19.833Z" fill="white"/>
<path d="M93.5054 13.1996C92.7076 12.7305 91.7911 12.4927 90.7758 12.4927C89.7604 12.4927 88.8769 12.7305 88.066 13.1996C87.2682 13.6686 86.6287 14.3226 86.1605 15.1484C85.6924 15.9676 85.4551 16.9123 85.4551 17.9892C85.4551 19.066 85.6924 19.9777 86.1605 20.8101C86.6287 21.6293 87.2616 22.2701 88.066 22.7391C88.8638 23.2082 89.7736 23.446 90.7758 23.446C91.7779 23.446 92.7076 23.2082 93.5054 22.7391C94.3031 22.2701 94.9427 21.6226 95.4108 20.8101C95.8789 19.9777 96.1163 19.033 96.1163 17.9693C96.1163 16.9057 95.8789 15.961 95.4108 15.1484C94.9427 14.316 94.3097 13.6686 93.5054 13.1996ZM92.6548 19.5086C92.4636 19.9248 92.1999 20.2353 91.8703 20.4401C91.5538 20.6449 91.1846 20.7506 90.7758 20.7506C90.367 20.7506 90.011 20.6449 89.6813 20.4401C89.3648 20.2353 89.1077 19.9182 88.9165 19.5086C88.7253 19.0924 88.6264 18.5837 88.6264 17.9759C88.6264 17.3682 88.7253 16.8529 88.9165 16.4433C89.1077 16.0271 89.3648 15.7166 89.6813 15.5118C90.011 15.307 90.3868 15.2013 90.8022 15.2013C91.2175 15.2013 91.5801 15.307 91.8966 15.5118C92.2131 15.7166 92.4702 16.0337 92.6614 16.4433C92.8526 16.8595 92.9515 17.3682 92.9515 17.9759C92.9515 18.5837 92.8526 19.099 92.6614 19.5086H92.6548Z" fill="white"/>
<path d="M101.688 13.51C101.312 13.8271 100.989 14.2103 100.712 14.6529L100.422 12.7437H97.6658V23.2015H100.771V18.5375C100.771 18.009 100.831 17.5795 100.956 17.2294C101.094 16.8727 101.279 16.5886 101.516 16.3772C101.767 16.1724 102.057 16.0271 102.386 15.9412C102.729 15.8421 103.112 15.7958 103.527 15.7958H104.562V12.4993C103.995 12.4993 103.468 12.5918 102.967 12.7701C102.485 12.9485 102.057 13.1995 101.681 13.5166L101.688 13.51Z" fill="white"/>
<path d="M81.7629 13.2194C81.031 12.7371 80.1805 12.4927 79.2179 12.4927C78.2553 12.4927 78.1828 12.572 77.7674 12.7239C77.3652 12.8626 77.0224 13.0542 76.7323 13.3053C76.4422 13.5563 76.185 13.8206 75.9674 14.1112L75.618 12.7437H72.8621V27.7599H75.9674V21.953C76.3235 22.422 76.7718 22.792 77.3125 23.0496C77.8531 23.3139 78.4926 23.446 79.2377 23.446C79.9827 23.446 80.998 23.2082 81.7431 22.7391C82.4881 22.2701 83.0815 21.6226 83.5232 20.8101C83.9782 19.9777 84.2089 19.0396 84.2089 17.9892C84.2089 16.9387 83.9914 16.0073 83.5496 15.1881C83.1079 14.3557 82.5145 13.7016 81.7695 13.2194H81.7629ZM80.708 19.4227C80.4904 19.8389 80.1739 20.1626 79.7783 20.4005C79.3893 20.6185 78.9476 20.7308 78.4531 20.7308C77.9586 20.7308 77.4839 20.6185 77.0883 20.4005C76.6993 20.1626 76.396 19.8389 76.1784 19.4227C75.9609 18.9933 75.8488 18.5111 75.8488 17.9693C75.8488 17.4276 75.9609 16.9718 76.1784 16.5556C76.4026 16.1394 76.7059 15.8157 77.0883 15.5778C77.4905 15.3268 77.9454 15.2013 78.4531 15.2013C78.9608 15.2013 79.3893 15.3268 79.7783 15.5778C80.1805 15.8157 80.4904 16.1394 80.708 16.5556C80.9255 16.9718 81.0376 17.4474 81.0376 17.9892C81.0376 18.5309 80.9255 19.0065 80.708 19.4227Z" fill="white"/>
<path d="M69.0182 13.51C68.6424 13.8271 68.3193 14.2103 68.0424 14.6529L67.7523 12.7437H64.9963V23.2015H68.1017V18.5375C68.1017 18.009 68.1611 17.5795 68.2863 17.2294C68.4248 16.8727 68.6094 16.5886 68.8468 16.3772C69.0973 16.1724 69.3874 16.0271 69.7171 15.9412C70.0599 15.8421 70.4423 15.7958 70.8577 15.7958H71.8928V12.4993C71.3258 12.4993 70.7983 12.5918 70.2973 12.7701C69.816 12.9485 69.3874 13.1995 69.0116 13.5166L69.0182 13.51Z" fill="white"/>
<path d="M60.8296 13.1996C60.0318 12.7305 59.1153 12.4927 58.1 12.4927C57.0846 12.4927 56.2012 12.7305 55.3902 13.1996C54.5924 13.6686 53.9529 14.3226 53.4848 15.1484C53.0166 15.9676 52.7793 16.9123 52.7793 17.9892C52.7793 19.066 53.0166 19.9777 53.4848 20.8101C53.9529 21.6293 54.5858 22.2701 55.3902 22.7391C56.188 23.2082 57.0978 23.446 58.1 23.446C59.1022 23.446 60.0318 23.2082 60.8296 22.7391C61.6274 22.2701 62.2669 21.6226 62.735 20.8101C63.2031 19.9777 63.4405 19.033 63.4405 17.9693C63.4405 16.9057 63.2031 15.961 62.735 15.1484C62.2669 14.316 61.6339 13.6686 60.8296 13.1996ZM59.9856 19.5086C59.7944 19.9248 59.5307 20.2353 59.2011 20.4401C58.8846 20.6449 58.5154 20.7506 58.1066 20.7506C57.6978 20.7506 57.3418 20.6449 57.0121 20.4401C56.6956 20.2353 56.4385 19.9182 56.2473 19.5086C56.0561 19.0924 55.9572 18.5837 55.9572 17.9759C55.9572 17.3682 56.0561 16.8529 56.2473 16.4433C56.4385 16.0271 56.6956 15.7166 57.0121 15.5118C57.3418 15.307 57.7176 15.2013 58.133 15.2013C58.5483 15.2013 58.911 15.307 59.2274 15.5118C59.5439 15.7166 59.801 16.0337 59.9922 16.4433C60.1834 16.8595 60.2823 17.3682 60.2823 17.9759C60.2823 18.5837 60.1834 19.099 59.9922 19.5086H59.9856Z" fill="white"/>
<path d="M43.0015 11.832C43.5817 11.4422 44.2806 11.2506 45.0916 11.2506C45.9025 11.2506 46.6476 11.4554 47.1816 11.8716C47.7222 12.2746 48.0717 12.8427 48.2365 13.5694H51.632C51.3551 11.9377 50.643 10.6693 49.5024 9.77079C48.3684 8.87233 46.9047 8.4231 45.1113 8.4231C43.318 8.4231 42.4147 8.74681 41.3664 9.40083C40.3181 10.035 39.5071 10.9203 38.9467 12.0566C38.3797 13.1797 38.0962 14.4811 38.0962 15.9741C38.0962 17.4672 38.3797 18.7422 38.9467 19.8719C39.5137 20.995 40.3181 21.867 41.3664 22.5078C42.4147 23.1288 43.6674 23.4393 45.1113 23.4393C46.5553 23.4393 48.3684 23.0033 49.5024 22.1313C50.6496 21.246 51.3617 20.0371 51.632 18.4978H48.2365C48.0585 19.1914 47.6959 19.7199 47.1618 20.0965C46.6344 20.4533 45.9487 20.6382 45.0916 20.6382C44.2345 20.6382 43.5817 20.4533 43.0015 20.0767C42.4345 19.6869 41.9994 19.1518 41.6961 18.4581C41.406 17.7513 41.2609 16.9255 41.2609 15.9675C41.2609 15.0096 41.406 14.1508 41.6961 13.4571C41.9994 12.7503 42.4345 12.2085 43.0015 11.8188V11.832Z" fill="white"/>
<path d="M188.164 12.7437H185.058V23.2015H188.164V12.7437Z" fill="white"/>
<path d="M183.028 18.26C182.685 17.857 182.197 17.5531 181.577 17.3483C180.971 17.1435 180.245 16.9454 179.402 16.767C178.96 16.6679 178.584 16.5754 178.281 16.4763C177.977 16.3772 177.74 16.2715 177.575 16.146C177.424 16.0073 177.344 15.8553 177.344 15.6901C177.344 15.4391 177.463 15.2409 177.694 15.089C177.931 14.937 178.274 14.8578 178.729 14.8578C179.184 14.8578 179.461 14.937 179.725 15.089C179.988 15.2277 180.16 15.4325 180.245 15.71H183.146C183.008 14.7256 182.566 13.9461 181.821 13.3647C181.076 12.7834 180.048 12.4927 178.736 12.4927C177.424 12.4927 177.028 12.6446 176.375 12.9485C175.729 13.2392 175.228 13.6422 174.885 14.1509C174.542 14.6463 174.364 15.2079 174.364 15.8289C174.364 16.4499 174.476 16.7736 174.694 17.1369C174.931 17.4805 175.235 17.7645 175.604 17.9892C175.993 18.2072 176.421 18.3987 176.909 18.5507C177.404 18.6894 177.905 18.8149 178.399 18.9273C178.828 19.0131 179.191 19.099 179.494 19.1981C179.797 19.284 180.028 19.3897 180.18 19.5284C180.344 19.6672 180.43 19.8654 180.43 20.1296C180.43 20.3939 180.377 20.4533 180.265 20.6053C180.153 20.7572 179.988 20.8827 179.771 20.9818C179.566 21.0677 179.289 21.1074 178.94 21.1074C178.591 21.1074 178.333 21.0611 178.07 20.962C177.819 20.8497 177.621 20.7044 177.47 20.526C177.331 20.3344 177.232 20.1164 177.18 19.8852H174.094C174.147 20.5656 174.378 21.1734 174.78 21.7085C175.195 22.2502 175.755 22.6797 176.454 22.9968C177.173 23.3007 178.024 23.4526 178.999 23.4526C179.975 23.4526 180.747 23.3073 181.419 23.0166C182.098 22.7127 182.612 22.2965 182.968 21.7746C183.344 21.2461 183.522 20.6449 183.509 19.9711C183.522 19.2245 183.357 18.6564 183.015 18.2732L183.028 18.26Z" fill="white"/>
<path d="M187.979 8.63435C187.636 8.31724 187.181 8.15869 186.614 8.15869C186.047 8.15869 185.612 8.31724 185.269 8.63435C184.927 8.95145 184.749 9.36105 184.749 9.85652C184.749 10.352 184.92 10.7418 185.269 11.0589C185.612 11.376 186.061 11.5345 186.614 11.5345C187.168 11.5345 187.636 11.376 187.979 11.0589C188.335 10.7418 188.52 10.3388 188.52 9.85652C188.52 9.37426 188.342 8.95145 187.979 8.63435Z" fill="white"/>
<path d="M172.676 18.26C172.334 17.857 171.846 17.5531 171.226 17.3483C170.619 17.1435 169.894 16.9454 169.05 16.767C168.608 16.6679 168.233 16.5754 167.929 16.4763C167.626 16.3772 167.389 16.2715 167.224 16.146C167.072 16.0073 166.993 15.8553 166.993 15.6901C166.993 15.4391 167.112 15.2409 167.343 15.089C167.58 14.937 167.923 14.8578 168.378 14.8578C168.833 14.8578 169.11 14.937 169.373 15.089C169.637 15.2277 169.808 15.4325 169.894 15.71H172.795C172.657 14.7256 172.215 13.9461 171.47 13.3647C170.725 12.7834 169.696 12.4927 168.384 12.4927C167.072 12.4927 166.67 12.6446 166.024 12.9485C165.378 13.2392 164.877 13.6422 164.534 14.1509C164.191 14.6463 164.013 15.2079 164.013 15.8289C164.013 16.4499 164.125 16.7736 164.343 17.1369C164.58 17.4805 164.883 17.7645 165.253 17.9892C165.642 18.2072 166.077 18.3987 166.558 18.5507C167.052 18.6894 167.554 18.8149 168.048 18.9273C168.477 19.0131 168.839 19.099 169.143 19.1981C169.446 19.284 169.677 19.3897 169.828 19.5284C169.993 19.6672 170.079 19.8654 170.079 20.1296C170.079 20.3939 170.026 20.4533 169.914 20.6053C169.802 20.7572 169.637 20.8827 169.419 20.9818C169.215 21.0677 168.938 21.1074 168.589 21.1074C168.239 21.1074 167.982 21.0611 167.718 20.962C167.468 20.8497 167.27 20.7044 167.118 20.526C166.98 20.3344 166.881 20.1164 166.828 19.8852H163.743C163.795 20.5656 164.026 21.1734 164.428 21.7085C164.844 22.2502 165.404 22.6797 166.103 22.9968C166.822 23.3007 167.672 23.4526 168.648 23.4526C169.624 23.4526 170.395 23.3073 171.068 23.0166C171.747 22.7127 172.261 22.2965 172.624 21.7746C172.993 21.2461 173.178 20.6449 173.164 19.9711C173.178 19.2245 173.013 18.6564 172.67 18.2732L172.676 18.26Z" fill="white"/>
<path d="M200.757 15.1881C200.315 14.3557 199.722 13.7016 198.977 13.2194C198.245 12.7371 197.394 12.4927 196.432 12.4927C195.469 12.4927 195.397 12.572 194.981 12.7239C194.579 12.8626 194.236 13.0542 193.946 13.3053C193.656 13.5563 193.399 13.8206 193.181 14.1112L192.832 12.7437H190.076V27.7599H193.181V21.953C193.537 22.422 193.992 22.792 194.526 23.0496C195.067 23.3139 195.707 23.446 196.452 23.446C197.197 23.446 198.212 23.2082 198.957 22.7391C199.702 22.2701 200.295 21.6226 200.737 20.8101C201.192 19.9777 201.423 19.0396 201.423 17.9892C201.423 16.9387 201.199 16.0073 200.757 15.1881ZM197.922 19.4227C197.698 19.8389 197.388 20.1626 196.992 20.4005C196.603 20.6185 196.161 20.7308 195.667 20.7308C195.172 20.7308 194.698 20.6185 194.302 20.4005C193.913 20.1626 193.61 19.8389 193.392 19.4227C193.168 18.9933 193.063 18.5111 193.063 17.9693C193.063 17.4276 193.175 16.9718 193.392 16.5556C193.616 16.1394 193.913 15.8157 194.302 15.5778C194.704 15.3268 195.159 15.2013 195.667 15.2013C196.175 15.2013 196.603 15.3268 196.992 15.5778C197.394 15.8157 197.704 16.1394 197.922 16.5556C198.139 16.9718 198.251 17.4474 198.251 17.9892C198.251 18.5309 198.139 19.0065 197.922 19.4227Z" fill="white"/>
<path d="M121.184 9.79715H118.408L118.078 12.7436H116.298V15.3399H118.078V19.383C118.078 20.3343 118.236 21.094 118.553 21.6423C118.869 22.1973 119.318 22.5936 119.898 22.8447C120.478 23.0825 121.137 23.1948 121.883 23.1948H123.847V20.5589H122.417C121.962 20.5589 121.639 20.473 121.441 20.3078C121.263 20.1295 121.17 19.8322 121.17 19.416V15.3267H123.841V12.7304H121.17V9.78394L121.184 9.79715Z" fill="white"/>
<path d="M160.149 13.1996C159.352 12.7305 158.435 12.4927 157.413 12.4927C156.391 12.4927 155.514 12.7305 154.703 13.1996C153.906 13.6686 153.266 14.3226 152.798 15.1484C152.33 15.9676 152.093 16.9123 152.093 17.9892C152.093 19.066 152.33 19.9777 152.798 20.8101C153.266 21.6293 153.899 22.2701 154.703 22.7391C155.501 23.2082 156.411 23.446 157.413 23.446C158.415 23.446 159.345 23.2082 160.149 22.7391C160.947 22.2701 161.587 21.6226 162.055 20.8101C162.523 19.9777 162.76 19.033 162.76 17.9693C162.76 16.9057 162.523 15.961 162.055 15.1484C161.587 14.316 160.954 13.6686 160.149 13.1996ZM159.299 19.5086C159.108 19.9248 158.844 20.2353 158.514 20.4401C158.198 20.6449 157.829 20.7506 157.42 20.7506C157.011 20.7506 156.655 20.6449 156.325 20.4401C156.009 20.2353 155.752 19.9182 155.561 19.5086C155.369 19.0924 155.27 18.5837 155.27 17.9759C155.27 17.3682 155.369 16.8529 155.561 16.4433C155.752 16.0271 156.009 15.7166 156.325 15.5118C156.655 15.307 157.031 15.2013 157.44 15.2013C157.848 15.2013 158.218 15.307 158.534 15.5118C158.851 15.7166 159.108 16.0337 159.299 16.4433C159.49 16.8595 159.589 17.3682 159.589 17.9759C159.589 18.5837 159.49 19.099 159.299 19.5086Z" fill="white"/>
<path d="M133.038 13.1797C132.254 12.7239 131.33 12.4927 130.282 12.4927C129.234 12.4927 128.258 12.7371 127.447 13.2194C126.63 13.7016 125.997 14.3689 125.542 15.2079C125.087 16.0535 124.856 17.0114 124.856 18.0883C124.856 19.1651 125.08 20.0702 125.542 20.8893C126.01 21.6887 126.649 22.3229 127.467 22.7788C128.284 23.2214 129.227 23.4394 130.302 23.4394C131.377 23.4394 131.865 23.2874 132.537 22.9836C133.216 22.6665 133.783 22.2436 134.258 21.7151C134.726 21.1734 135.056 20.5722 135.253 19.9116H132.089C131.924 20.2023 131.686 20.4467 131.383 20.6383C131.093 20.8167 130.724 20.9092 130.262 20.9092C129.801 20.9092 129.359 20.8035 129.003 20.5987C128.66 20.3939 128.39 20.1032 128.199 19.7266C128.054 19.4293 127.975 19.099 127.942 18.7291H135.504C135.53 18.5507 135.544 18.3789 135.544 18.2138C135.557 18.0354 135.563 17.8768 135.563 17.7381C135.563 16.7141 135.333 15.8157 134.878 15.0427C134.436 14.2566 133.823 13.629 133.038 13.1731V13.1797ZM128.007 16.9321C128.06 16.6811 128.133 16.4499 128.238 16.2451C128.462 15.8289 128.753 15.5184 129.109 15.3136C129.465 15.1088 129.867 15.0031 130.309 15.0031C130.75 15.0031 131.37 15.1815 131.759 15.5448C132.161 15.8883 132.372 16.3508 132.399 16.9321H128.007Z" fill="white"/>
<path d="M113.015 12.9947C112.283 12.6644 111.419 12.4993 110.43 12.4993C109.441 12.4993 108.709 12.6578 108.01 12.9749C107.305 13.292 106.738 13.728 106.316 14.283C105.901 14.8379 105.663 15.4853 105.591 16.2319H108.571C108.656 15.8157 108.861 15.5118 109.191 15.3202C109.52 15.1286 109.929 15.0295 110.41 15.0295C110.892 15.0295 111.221 15.1088 111.485 15.2607C111.749 15.4127 111.933 15.6439 112.045 15.9478C112.171 16.2517 112.23 16.6414 112.23 17.1105H109.705C108.696 17.1105 107.865 17.2558 107.199 17.5465C106.54 17.824 106.046 18.2005 105.729 18.6894C105.426 19.1585 105.274 19.7068 105.274 20.3278C105.274 20.9488 105.406 21.4443 105.67 21.9265C105.947 22.3956 106.369 22.7721 106.936 23.0496C107.516 23.3271 108.241 23.4658 109.111 23.4658C109.982 23.4658 109.876 23.4262 110.206 23.3403C110.536 23.2544 110.839 23.1421 111.116 22.9901C111.393 22.825 111.637 22.64 111.841 22.4286C112.045 22.2106 112.23 21.9662 112.382 21.7019L112.757 23.2148H115.342V16.7405C115.342 15.8157 115.138 15.0427 114.722 14.4151C114.32 13.7941 113.76 13.3251 113.021 13.0013L113.015 12.9947ZM112.078 18.9471C112.026 19.251 111.933 19.535 111.808 19.7993C111.696 20.0503 111.551 20.2683 111.373 20.4599C111.195 20.6515 110.977 20.8034 110.733 20.9158C110.483 21.0281 110.193 21.0809 109.863 21.0809C109.533 21.0809 109.388 21.0479 109.177 20.9752C108.986 20.8893 108.828 20.777 108.703 20.6251C108.591 20.4599 108.538 20.2617 108.538 20.0239C108.538 19.7861 108.591 19.6077 108.703 19.4425C108.815 19.2774 108.98 19.1519 109.197 19.066C109.434 18.9669 109.725 18.9206 110.067 18.9206H112.078V18.9405V18.9471Z" fill="white"/>
<path d="M144.246 17.4077H147.622C147.484 18.3458 147.101 19.132 146.482 19.753C145.875 20.374 144.978 20.6845 143.792 20.6845C142.605 20.6845 142.249 20.5127 141.636 20.1626C141.029 19.8058 140.567 19.2773 140.251 18.5837C139.935 17.89 139.776 17.051 139.776 16.0534C139.776 15.0559 139.935 14.2499 140.251 13.543C140.567 12.8229 141.036 12.268 141.662 11.8848C142.282 11.4818 143.047 11.2836 143.956 11.2836C144.866 11.2836 145.413 11.4422 145.921 11.7593C146.449 12.0764 146.811 12.5256 147.016 13.107H150.47C150.141 11.6404 149.402 10.4909 148.255 9.66509C147.121 8.83269 145.697 8.4231 143.97 8.4231C142.242 8.4231 141.121 8.74681 140.014 9.40083C138.913 10.0483 138.062 10.9467 137.469 12.0962C136.888 13.2457 136.598 14.567 136.598 16.06C136.598 17.5531 136.882 18.8347 137.449 19.938C138.016 21.0412 138.807 21.9066 139.829 22.5276C140.864 23.1354 142.071 23.4393 143.455 23.4393C144.84 23.4393 144.701 23.36 145.216 23.2081C145.737 23.0694 146.198 22.858 146.58 22.5673C146.983 22.2766 147.326 21.9265 147.616 21.5103L147.866 23.1883H150.721V15.0757H144.24V17.4011L144.246 17.4077Z" fill="white"/>
</svg>
