<svg width="197" height="32" viewBox="0 0 197 32" fill="none" xmlns="http://www.w3.org/2000/svg">
<path d="M30.2065 3.76158C28.8022 1.97151 26.6927 0.823039 24.2626 0.534317L24.1664 0.521484H7.53373L7.48243 0.527899C7.39266 0.540731 7.3029 0.553564 7.21313 0.572812H7.18107C5.4306 0.887198 4.03279 1.65712 3.0197 2.86334L2.87864 3.03657C2.19256 3.91557 1.69884 5.02554 1.4103 6.328L1.141 7.57271C0.737041 9.47828 0.448503 11.0566 0.256144 12.404V12.4297C0.256144 12.4425 0.249731 12.4617 0.243319 12.4746C0.179199 12.9558 0.121492 13.3985 0.0830199 13.8027C0.0830199 13.8027 0.0830199 13.8027 0.0830199 13.8091C0.0766079 13.9118 0.0701967 14.008 0.0637848 14.1042C0.0317249 14.5469 0.0124874 14.9897 0.00607545 15.4388C-0.0259844 17.2032 0.159963 18.974 0.967871 20.578C1.43595 21.5019 2.08356 22.336 2.85299 23.029C4.23157 24.2737 5.97562 25.0436 7.83509 25.1719H7.88639H7.93768C7.98257 25.1719 8.03386 25.1719 8.07875 25.1719C8.12363 25.1719 8.17493 25.1719 8.21981 25.1719H14.5933C15.5359 25.1719 16.472 25.1719 17.4146 25.1719H22.8712C22.8712 25.1719 22.884 25.1719 22.8968 25.1719H22.9225C23.4226 25.544 23.9163 26.0381 24.3459 26.4744C24.5319 26.6668 24.7178 26.8593 24.9038 27.0518C24.9551 27.1031 25.0064 27.1609 25.0576 27.2122C25.1025 27.2635 25.1538 27.3149 25.1987 27.3598C25.2628 27.4239 25.3205 27.4881 25.3782 27.5587L25.4103 27.5908C25.4424 27.6228 25.468 27.6549 25.5001 27.6934C25.577 27.7768 25.6604 27.8666 25.7437 27.9501L26.2823 28.5147L28.2893 30.6127L28.5842 30.9207L28.5971 30.9335C28.5971 30.9399 29.1228 31.4853 29.1228 31.4853L29.5973 28.0463L29.6101 27.9757L29.7063 27.302L29.7192 27.2379L30.8348 18.9997C31.2644 16.2087 31.7517 13.0456 32.0082 10.2995C32.2326 7.85502 31.585 5.53241 30.1936 3.76158H30.2065Z" fill="#FF9A9A"/>
<path d="M28.226 8.04716L28.2132 8.22681C27.9695 10.8574 27.4886 13.9307 27.0654 16.6447L26.3024 22.233C26.2191 22.8554 26.1293 23.4777 26.0459 24.0937C26.0075 24.0552 25.9754 24.0167 25.9369 23.9846C25.8408 23.8884 25.7382 23.7857 25.642 23.6831L25.0393 23.0735L24.6353 22.6757C24.2121 22.2715 23.8595 21.9571 23.5068 21.6941L23.2696 21.5144C22.8464 21.2129 22.3911 21.0653 21.8397 21.0653H16.1715C15.2033 21.0653 14.2287 21.0653 13.2605 21.0653H10.2725C9.56717 21.0653 8.85544 21.0653 8.15013 21.0653H6.62408C6.54072 21.0653 6.45737 21.0653 6.38043 21.0653C3.68099 20.9113 1.1162 18.6208 0.776362 16.0544L0.763537 15.9261C0.686593 15.2075 0.763536 14.059 0.975131 12.5191V12.4678C1.16749 11.1461 1.44962 9.58701 1.84716 7.71353L2.11647 6.46882C2.37936 5.27543 2.82819 4.2617 3.44374 3.47253L3.57198 3.31213C4.46324 2.24706 5.70075 1.56696 7.25886 1.28466H7.29092C7.30375 1.27824 7.31657 1.27183 7.3294 1.27183C7.39993 1.25899 7.47046 1.24616 7.54099 1.23975H22.6732C26.2511 1.67604 28.4825 4.41569 28.226 8.04075V8.04716Z" fill="#AA336A"/>
<path d="M0.108897 13.5136C0.147369 13.1479 0.192255 12.7886 0.243551 12.4229C0.243551 12.4357 0.243551 12.4549 0.243551 12.4742C0.179432 12.9554 0.121724 13.3981 0.083252 13.8023C0.0896639 13.7061 0.0960735 13.6098 0.108897 13.5136Z" fill="white"/>
<path d="M0.0072195 15.4388C0.0136315 14.9896 0.0392809 14.5469 0.0649288 14.1042C0.0649288 14.0016 0.0777519 13.9053 0.0841639 13.8091C0.0264562 14.4443 -0.00560288 14.9896 0.000809092 15.4388H0.0072195Z" fill="white"/>
<path d="M9.43269 16.1572C8.43884 16.1572 7.58605 15.9455 6.86791 15.522C6.14977 15.0857 5.59834 14.489 5.21362 13.7255C4.8289 12.9492 4.63013 12.0638 4.63013 11.0629C4.63013 10.062 4.82249 9.15088 5.21362 8.38737C5.59834 7.61103 6.15618 7.00792 6.86791 6.57163C7.58605 6.12893 8.43884 5.90437 9.43269 5.90437C10.4265 5.90437 11.6576 6.21234 12.4335 6.82828C13.2158 7.44421 13.7031 8.30397 13.8954 9.42036H11.5743C11.4589 8.91991 11.2216 8.53494 10.8497 8.25905C10.4843 7.97675 10.0034 7.83559 9.41987 7.83559C8.83638 7.83559 8.38754 7.97033 7.99 8.23339C7.60528 8.49645 7.30392 8.86857 7.09874 9.34978C6.89996 9.82456 6.80379 10.3956 6.80379 11.0629C6.80379 11.7301 6.89996 12.2819 7.09874 12.7631C7.30392 13.2379 7.60528 13.6036 7.99 13.8667C8.38754 14.1233 8.86203 14.2516 9.41987 14.2516C9.97771 14.2516 10.4778 14.1297 10.8369 13.8859C11.2024 13.6293 11.4525 13.27 11.5743 12.7952H13.8954C13.7095 13.841 13.2222 14.6687 12.4335 15.2782C11.6576 15.8749 10.6574 16.17 9.43269 16.17V16.1572ZM19.2879 16.1572C18.3453 16.1572 17.5182 15.9519 16.8065 15.5348C16.1076 15.1114 15.5625 14.5211 15.1778 13.764C14.7931 13.0069 14.5943 12.1279 14.5943 11.1142C14.5943 10.1005 14.7931 9.18938 15.1906 8.40662C15.5946 7.62387 16.1781 7.00793 16.9347 6.56522C17.6913 6.12251 18.589 5.89795 19.6406 5.89795C20.6921 5.89795 21.795 6.18025 22.5708 6.75128C23.3531 7.31589 23.8596 8.10507 24.084 9.10597H21.718C21.577 8.70817 21.3269 8.40021 20.9678 8.18206C20.6216 7.96392 20.1727 7.85484 19.6213 7.85484C19.0699 7.85484 18.4736 7.98958 18.0504 8.26547C17.6272 8.52853 17.3066 8.90707 17.0886 9.40111C16.8706 9.88231 16.7616 10.4533 16.7616 11.1142C16.7616 11.775 16.8706 12.3717 17.0886 12.8401C17.3066 13.3149 17.6208 13.6742 18.0376 13.918C18.4543 14.1554 18.9416 14.2709 19.5123 14.2709C20.3266 14.2709 20.9358 14.0592 21.3525 13.6357C21.7757 13.2122 22.0386 12.6797 22.1284 12.0317H19.8201V10.4469H24.2508V15.9904H22.2951L22.1284 14.8419C21.9296 15.1242 21.6924 15.368 21.4231 15.5669C21.1602 15.7658 20.846 15.9134 20.4869 16.0032C20.1407 16.1059 19.7367 16.1572 19.2815 16.1572H19.2879Z" fill="white"/>
<path d="M90.9345 13.3403C90.1586 12.8848 89.2674 12.6538 88.2799 12.6538C87.2925 12.6538 86.4333 12.8848 85.6446 13.3403C84.8688 13.7959 84.2468 14.4311 83.7915 15.2331C83.3363 16.0286 83.1055 16.9461 83.1055 17.992C83.1055 19.0378 83.3363 19.9232 83.7915 20.7316C84.2468 21.5272 84.8623 22.1496 85.6446 22.6051C86.4205 23.0606 87.3053 23.2916 88.2799 23.2916C89.2545 23.2916 90.1586 23.0606 90.9345 22.6051C91.7103 22.1496 92.3323 21.5208 92.7875 20.7316C93.2428 19.9232 93.4736 19.0057 93.4736 17.9727C93.4736 16.9397 93.2428 16.0222 92.7875 15.2331C92.3323 14.4246 91.7167 13.7959 90.9345 13.3403ZM90.1073 19.4676C89.9214 19.8719 89.6649 20.1734 89.3443 20.3723C89.0365 20.5712 88.6775 20.6739 88.2799 20.6739C87.8824 20.6739 87.5361 20.5712 87.2155 20.3723C86.9078 20.1734 86.6577 19.8654 86.4718 19.4676C86.2858 19.0634 86.1896 18.5694 86.1896 17.9791C86.1896 17.3888 86.2858 16.8884 86.4718 16.4906C86.6577 16.0864 86.9078 15.7848 87.2155 15.5859C87.5361 15.387 87.9016 15.2844 88.3056 15.2844C88.7095 15.2844 89.0622 15.387 89.37 15.5859C89.6777 15.7848 89.9278 16.0928 90.1138 16.4906C90.2997 16.8948 90.3959 17.3888 90.3959 17.9791C90.3959 18.5694 90.2997 19.0698 90.1138 19.4676H90.1073Z" fill="#AA336A"/>
<path d="M98.8925 13.6423C98.527 13.9503 98.2128 14.3224 97.9435 14.7523L97.6614 12.898H94.9812V23.0546H98.0012V18.5249C98.0012 18.0116 98.059 17.5946 98.1808 17.2545C98.3154 16.9081 98.495 16.6322 98.7258 16.4269C98.9695 16.228 99.2516 16.0868 99.5722 16.0034C99.9056 15.9072 100.277 15.8622 100.681 15.8622H101.688V12.6606C101.137 12.6606 100.624 12.7505 100.136 12.9237C99.6684 13.0969 99.2516 13.3407 98.8861 13.6487L98.8925 13.6423Z" fill="#AA336A"/>
<path d="M79.5155 13.3596C78.8038 12.8912 77.9767 12.6538 77.0405 12.6538C76.1044 12.6538 76.0338 12.7308 75.6299 12.8784C75.2388 13.0131 74.9053 13.1992 74.6232 13.443C74.3411 13.6868 74.091 13.9434 73.8794 14.2257L73.5396 12.8976H70.8594V27.4813H73.8794V21.8416C74.2257 22.2971 74.6617 22.6564 75.1875 22.9066C75.7132 23.1633 76.3352 23.2916 77.0597 23.2916C77.7843 23.2916 78.7717 23.0606 79.4963 22.6051C80.2208 22.1496 80.7979 21.5208 81.2275 20.7316C81.67 19.9232 81.8944 19.0121 81.8944 17.992C81.8944 16.9718 81.6828 16.0671 81.2532 15.2716C80.8236 14.4631 80.2465 13.8279 79.5219 13.3596H79.5155ZM78.4896 19.3842C78.278 19.7884 77.9703 20.1028 77.5855 20.3338C77.2072 20.5455 76.7776 20.6546 76.2967 20.6546C75.8158 20.6546 75.3542 20.5455 74.9694 20.3338C74.5911 20.1028 74.2962 19.7884 74.0846 19.3842C73.873 18.9672 73.764 18.4988 73.764 17.9727C73.764 17.4466 73.873 17.0039 74.0846 16.5997C74.3026 16.1955 74.5976 15.8811 74.9694 15.6501C75.3606 15.4063 75.803 15.2844 76.2967 15.2844C76.7905 15.2844 77.2072 15.4063 77.5855 15.6501C77.9767 15.8811 78.278 16.1955 78.4896 16.5997C78.7012 17.0039 78.8102 17.4658 78.8102 17.992C78.8102 18.5181 78.7012 18.98 78.4896 19.3842Z" fill="#AA336A"/>
<path d="M67.1208 13.6423C66.7553 13.9503 66.4411 14.3224 66.1718 14.7523L65.8897 12.898H63.2095V23.0546H66.2295V18.5249C66.2295 18.0116 66.2872 17.5946 66.409 17.2545C66.5437 16.9081 66.7232 16.6322 66.9541 16.4269C67.1977 16.228 67.4799 16.0868 67.8005 16.0034C68.1339 15.9072 68.5058 15.8622 68.9097 15.8622H69.9164V12.6606C69.365 12.6606 68.852 12.7505 68.3647 12.9237C67.8966 13.0969 67.4798 13.3407 67.1144 13.6487L67.1208 13.6423Z" fill="#AA336A"/>
<path d="M59.1576 13.3403C58.3818 12.8848 57.4905 12.6538 56.5031 12.6538C55.5156 12.6538 54.6564 12.8848 53.8678 13.3403C53.0919 13.7959 52.4699 14.4311 52.0147 15.2331C51.5594 16.0286 51.3286 16.9461 51.3286 17.992C51.3286 19.0378 51.5594 19.9232 52.0147 20.7316C52.4699 21.5272 53.0855 22.1496 53.8678 22.6051C54.6436 23.0606 55.5285 23.2916 56.5031 23.2916C57.4777 23.2916 58.3818 23.0606 59.1576 22.6051C59.9335 22.1496 60.5554 21.5208 61.0107 20.7316C61.4659 19.9232 61.6968 19.0057 61.6968 17.9727C61.6968 16.9397 61.4659 16.0222 61.0107 15.2331C60.5554 14.4246 59.9399 13.7959 59.1576 13.3403ZM58.3369 19.4676C58.1509 19.8719 57.8945 20.1734 57.5739 20.3723C57.2661 20.5712 56.907 20.6739 56.5095 20.6739C56.1119 20.6739 55.7657 20.5712 55.4451 20.3723C55.1373 20.1734 54.8873 19.8654 54.7013 19.4676C54.5154 19.0634 54.4192 18.5694 54.4192 17.9791C54.4192 17.3888 54.5154 16.8884 54.7013 16.4906C54.8873 16.0864 55.1373 15.7848 55.4451 15.5859C55.7657 15.387 56.1312 15.2844 56.5351 15.2844C56.9391 15.2844 57.2917 15.387 57.5995 15.5859C57.9073 15.7848 58.1574 16.0928 58.3433 16.4906C58.5293 16.8948 58.6254 17.3888 58.6254 17.9791C58.6254 18.5694 58.5293 19.0698 58.3433 19.4676H58.3369Z" fill="#AA336A"/>
<path d="M41.8186 12.0123C42.3829 11.6338 43.0625 11.4477 43.8512 11.4477C44.6399 11.4477 45.3644 11.6466 45.8838 12.0508C46.4096 12.4422 46.7494 12.994 46.9097 13.6998H50.2119C49.9426 12.115 49.2501 10.8831 48.1408 10.0105C47.0379 9.13795 45.6145 8.70166 43.8704 8.70166C42.1264 8.70166 41.2479 9.01605 40.2284 9.65123C39.2089 10.2672 38.4203 11.1269 37.8752 12.2305C37.3238 13.3212 37.0481 14.5852 37.0481 16.0352C37.0481 17.4852 37.3238 18.7235 37.8752 19.8207C38.4267 20.9114 39.2089 21.7583 40.2284 22.3807C41.2479 22.9838 42.4662 23.2853 43.8704 23.2853C45.2747 23.2853 47.0379 22.8619 48.1408 22.0149C49.2565 21.1552 49.949 19.9811 50.2119 18.4861H46.9097C46.7366 19.1598 46.3839 19.6731 45.8646 20.0388C45.3516 20.3853 44.6848 20.5649 43.8512 20.5649C43.0176 20.5649 42.3829 20.3853 41.8186 20.0196C41.2672 19.641 40.844 19.1213 40.549 18.4476C40.2669 17.7611 40.1258 16.9591 40.1258 16.0288C40.1258 15.0985 40.2669 14.2644 40.549 13.5907C40.844 12.9042 41.2672 12.3781 41.8186 11.9995V12.0123Z" fill="#AA336A"/>
<path d="M182.991 12.8979H179.971V23.0545H182.991V12.8979Z" fill="#AA336A"/>
<path d="M177.997 18.255C177.663 17.8636 177.189 17.5685 176.586 17.3696C175.996 17.1707 175.291 16.9782 174.47 16.805C174.041 16.7087 173.675 16.6189 173.38 16.5227C173.085 16.4264 172.854 16.3238 172.694 16.2019C172.547 16.0671 172.47 15.9196 172.47 15.7592C172.47 15.5154 172.585 15.3229 172.81 15.1753C173.04 15.0277 173.374 14.9508 173.816 14.9508C174.259 14.9508 174.528 15.0277 174.784 15.1753C175.041 15.3101 175.208 15.5089 175.291 15.7784H178.112C177.978 14.8224 177.548 14.0653 176.823 13.5007C176.099 12.9361 175.099 12.6538 173.823 12.6538C172.547 12.6538 172.162 12.8014 171.527 13.0965C170.899 13.3788 170.411 13.7702 170.078 14.2642C169.745 14.7454 169.571 15.2908 169.571 15.8939C169.571 16.497 169.68 16.8114 169.892 17.1643C170.123 17.4979 170.418 17.7738 170.777 17.992C171.155 18.2037 171.572 18.3897 172.047 18.5373C172.527 18.6721 173.015 18.794 173.496 18.903C173.912 18.9864 174.265 19.0698 174.56 19.1661C174.855 19.2495 175.079 19.3522 175.227 19.4869C175.387 19.6216 175.471 19.8141 175.471 20.0708C175.471 20.3274 175.419 20.3851 175.31 20.5327C175.201 20.6803 175.041 20.8022 174.829 20.8984C174.631 20.9818 174.361 21.0203 174.021 21.0203C173.682 21.0203 173.431 20.9754 173.175 20.8792C172.931 20.7701 172.739 20.6289 172.592 20.4557C172.457 20.2697 172.361 20.0579 172.309 19.8334H169.309C169.36 20.4942 169.584 21.0845 169.975 21.6042C170.379 22.1303 170.924 22.5473 171.604 22.8553C172.303 23.1504 173.13 23.298 174.079 23.298C175.028 23.298 175.778 23.1569 176.432 22.8746C177.093 22.5794 177.593 22.1752 177.939 21.6683C178.305 21.1551 178.478 20.5712 178.465 19.9168C178.478 19.1918 178.317 18.64 177.984 18.2678L177.997 18.255Z" fill="#AA336A"/>
<path d="M182.812 8.90727C182.478 8.5993 182.036 8.44531 181.485 8.44531C180.933 8.44531 180.51 8.5993 180.176 8.90727C179.843 9.21524 179.67 9.61303 179.67 10.0942C179.67 10.5754 179.837 10.954 180.176 11.262C180.51 11.5699 180.946 11.7239 181.485 11.7239C182.023 11.7239 182.478 11.5699 182.812 11.262C183.158 10.954 183.338 10.5626 183.338 10.0942C183.338 9.62586 183.164 9.21524 182.812 8.90727Z" fill="#AA336A"/>
<path d="M167.929 18.255C167.596 17.8636 167.121 17.5685 166.519 17.3696C165.929 17.1707 165.223 16.9782 164.403 16.805C163.973 16.7087 163.608 16.6189 163.313 16.5227C163.018 16.4264 162.787 16.3238 162.626 16.2019C162.479 16.0671 162.402 15.9196 162.402 15.7592C162.402 15.5154 162.517 15.3229 162.742 15.1753C162.973 15.0277 163.306 14.9508 163.749 14.9508C164.191 14.9508 164.46 15.0277 164.717 15.1753C164.973 15.3101 165.14 15.5089 165.223 15.7784H168.045C167.91 14.8224 167.48 14.0653 166.756 13.5007C166.031 12.9361 165.031 12.6538 163.755 12.6538C162.479 12.6538 162.088 12.8014 161.46 13.0965C160.831 13.3788 160.344 13.7702 160.01 14.2642C159.677 14.7454 159.504 15.2908 159.504 15.8939C159.504 16.497 159.613 16.8114 159.824 17.1643C160.055 17.4979 160.35 17.7738 160.709 17.992C161.088 18.2037 161.511 18.3897 161.979 18.5373C162.46 18.6721 162.947 18.794 163.428 18.903C163.845 18.9864 164.197 19.0698 164.492 19.1661C164.787 19.2495 165.012 19.3522 165.159 19.4869C165.32 19.6216 165.403 19.8141 165.403 20.0708C165.403 20.3274 165.352 20.3851 165.243 20.5327C165.134 20.6803 164.973 20.8022 164.762 20.8984C164.563 20.9818 164.294 21.0203 163.954 21.0203C163.614 21.0203 163.364 20.9754 163.107 20.8792C162.864 20.7701 162.671 20.6289 162.524 20.4557C162.389 20.2697 162.293 20.0579 162.242 19.8334H159.241C159.292 20.4942 159.517 21.0845 159.908 21.6042C160.312 22.1303 160.857 22.5473 161.536 22.8553C162.235 23.1504 163.063 23.298 164.011 23.298C164.96 23.298 165.711 23.1569 166.365 22.8746C167.025 22.5794 167.525 22.1752 167.878 21.6683C168.237 21.1551 168.417 20.5712 168.404 19.9168C168.417 19.1918 168.256 18.64 167.923 18.2678L167.929 18.255Z" fill="#AA336A"/>
<path d="M195.239 15.2716C194.809 14.4631 194.232 13.8279 193.507 13.3596C192.796 12.8912 191.969 12.6538 191.032 12.6538C190.096 12.6538 190.026 12.7308 189.622 12.8784C189.231 13.0131 188.897 13.1992 188.615 13.443C188.333 13.6868 188.083 13.9434 187.871 14.2257L187.532 12.8976H184.851V27.4813H187.871V21.8416C188.218 22.2971 188.654 22.6564 189.179 22.9066C189.705 23.1633 190.327 23.2916 191.052 23.2916C191.776 23.2916 192.764 23.0606 193.488 22.6051C194.213 22.1496 194.79 21.5208 195.219 20.7316C195.662 19.9232 195.886 19.0121 195.886 17.992C195.886 16.9718 195.668 16.0671 195.239 15.2716ZM192.482 19.3842C192.264 19.7884 191.962 20.1028 191.577 20.3338C191.199 20.5455 190.77 20.6546 190.289 20.6546C189.808 20.6546 189.346 20.5455 188.961 20.3338C188.583 20.1028 188.288 19.7884 188.077 19.3842C187.859 18.9672 187.756 18.4988 187.756 17.9727C187.756 17.4466 187.865 17.0039 188.077 16.5997C188.295 16.1955 188.583 15.8811 188.961 15.6501C189.353 15.4063 189.795 15.2844 190.289 15.2844C190.782 15.2844 191.199 15.4063 191.577 15.6501C191.969 15.8811 192.27 16.1955 192.482 16.5997C192.693 17.0039 192.802 17.4658 192.802 17.992C192.802 18.5181 192.693 18.98 192.482 19.3842Z" fill="#AA336A"/>
<path d="M117.852 10.0363H115.152L114.832 12.8978H113.1V15.4193H114.832V19.3459C114.832 20.2699 114.985 21.0077 115.293 21.5402C115.601 22.0792 116.037 22.4641 116.601 22.708C117.166 22.9389 117.807 23.048 118.531 23.048H120.442V20.488H119.051C118.608 20.488 118.294 20.4046 118.102 20.2442C117.929 20.071 117.839 19.7822 117.839 19.378V15.4065H120.436V12.885H117.839V10.0234L117.852 10.0363Z" fill="#AA336A"/>
<path d="M155.747 13.3403C154.971 12.8848 154.079 12.6538 153.086 12.6538C152.092 12.6538 151.239 12.8848 150.45 13.3403C149.674 13.7959 149.052 14.4311 148.597 15.2331C148.142 16.0286 147.911 16.9461 147.911 17.992C147.911 19.0378 148.142 19.9232 148.597 20.7316C149.052 21.5272 149.668 22.1496 150.45 22.6051C151.226 23.0606 152.111 23.2916 153.086 23.2916C154.06 23.2916 154.964 23.0606 155.747 22.6051C156.522 22.1496 157.144 21.5208 157.6 20.7316C158.055 19.9232 158.286 19.0057 158.286 17.9727C158.286 16.9397 158.055 16.0222 157.6 15.2331C157.144 14.4246 156.529 13.7959 155.747 13.3403ZM154.919 19.4676C154.733 19.8719 154.477 20.1734 154.156 20.3723C153.849 20.5712 153.49 20.6739 153.092 20.6739C152.694 20.6739 152.348 20.5712 152.028 20.3723C151.72 20.1734 151.47 19.8654 151.284 19.4676C151.098 19.0634 151.002 18.5694 151.002 17.9791C151.002 17.3888 151.098 16.8884 151.284 16.4906C151.47 16.0864 151.72 15.7848 152.028 15.5859C152.348 15.387 152.714 15.2844 153.111 15.2844C153.509 15.2844 153.868 15.387 154.176 15.5859C154.483 15.7848 154.733 16.0928 154.919 16.4906C155.105 16.8948 155.202 17.3888 155.202 17.9791C155.202 18.5694 155.105 19.0698 154.919 19.4676Z" fill="#AA336A"/>
<path d="M129.381 13.3211C128.618 12.8784 127.72 12.6538 126.7 12.6538C125.681 12.6538 124.732 12.8912 123.943 13.3596C123.148 13.8279 122.533 14.476 122.09 15.2908C121.648 16.1121 121.423 17.0424 121.423 18.0882C121.423 19.134 121.641 20.013 122.09 20.8086C122.545 21.5849 123.167 22.2009 123.962 22.6436C124.758 23.0735 125.674 23.2852 126.72 23.2852C127.765 23.2852 128.239 23.1376 128.893 22.8425C129.554 22.5345 130.105 22.1239 130.567 21.6106C131.022 21.0845 131.343 20.5006 131.535 19.859H128.457C128.297 20.1413 128.066 20.3787 127.771 20.5648C127.489 20.738 127.13 20.8278 126.681 20.8278C126.232 20.8278 125.803 20.7252 125.456 20.5263C125.123 20.3274 124.86 20.0451 124.674 19.6794C124.533 19.3907 124.456 19.0698 124.424 18.7106H131.779C131.804 18.5373 131.817 18.3705 131.817 18.2101C131.83 18.0369 131.836 17.8829 131.836 17.7481C131.836 16.7537 131.612 15.8811 131.17 15.1304C130.74 14.3669 130.144 13.7574 129.381 13.3147V13.3211ZM124.488 16.9654C124.54 16.7216 124.61 16.497 124.713 16.2981C124.931 15.8939 125.213 15.5924 125.559 15.3935C125.905 15.1946 126.296 15.0919 126.726 15.0919C127.156 15.0919 127.758 15.2651 128.137 15.618C128.528 15.9517 128.733 16.4008 128.759 16.9654H124.488Z" fill="#AA336A"/>
<path d="M109.908 13.1418C109.196 12.821 108.356 12.6606 107.394 12.6606C106.432 12.6606 105.721 12.8146 105.041 13.1226C104.355 13.4306 103.804 13.854 103.393 14.393C102.989 14.9319 102.758 15.5607 102.688 16.2857H105.586C105.669 15.8815 105.868 15.5864 106.189 15.4003C106.509 15.2142 106.907 15.118 107.375 15.118C107.843 15.118 108.164 15.195 108.42 15.3425C108.677 15.4901 108.856 15.7147 108.965 16.0098C109.087 16.305 109.145 16.6835 109.145 17.139H106.689C105.708 17.139 104.9 17.2802 104.252 17.5625C103.611 17.832 103.13 18.1977 102.823 18.6725C102.528 19.128 102.38 19.6605 102.38 20.2637C102.38 20.8668 102.508 21.348 102.765 21.8163C103.034 22.2719 103.445 22.6376 103.996 22.9071C104.56 23.1765 105.266 23.3113 106.112 23.3113C106.958 23.3113 106.856 23.2728 107.176 23.1894C107.497 23.106 107.792 22.9969 108.061 22.8493C108.33 22.6889 108.568 22.5093 108.766 22.304C108.965 22.0922 109.145 21.8548 109.292 21.5982L109.658 23.0675H112.178V16.7797C112.178 15.8815 111.979 15.1308 111.575 14.5213C111.184 13.9182 110.639 13.4626 109.921 13.1483L109.908 13.1418ZM108.997 18.9227C108.946 19.2178 108.856 19.4937 108.734 19.7504C108.625 19.9942 108.484 20.2059 108.311 20.392C108.138 20.578 107.926 20.7256 107.689 20.8347C107.446 20.9437 107.163 20.9951 106.843 20.9951C106.522 20.9951 106.381 20.963 106.176 20.8924C105.99 20.809 105.836 20.6999 105.714 20.5524C105.605 20.392 105.554 20.1995 105.554 19.9685C105.554 19.7375 105.605 19.5643 105.714 19.4039C105.823 19.2435 105.984 19.1216 106.195 19.0382C106.426 18.9419 106.708 18.897 107.042 18.897H108.997V18.9163V18.9227Z" fill="#AA336A"/>
<path d="M140.281 17.4275H143.564C143.429 18.3386 143.057 19.1021 142.455 19.7052C141.865 20.3083 140.993 20.6098 139.838 20.6098C138.684 20.6098 138.338 20.443 137.742 20.103C137.152 19.7565 136.703 19.2432 136.395 18.5695C136.087 17.8958 135.934 17.081 135.934 16.1122C135.934 15.1434 136.087 14.3606 136.395 13.6741C136.703 12.9747 137.158 12.4358 137.767 12.0637C138.37 11.6723 139.114 11.4798 139.999 11.4798C140.884 11.4798 141.416 11.6338 141.91 11.9418C142.423 12.2497 142.775 12.686 142.974 13.2506H146.334C146.013 11.8263 145.295 10.7099 144.179 9.90788C143.077 9.09945 141.692 8.70166 140.012 8.70166C138.332 8.70166 137.242 9.01605 136.164 9.65123C135.094 10.28 134.266 11.1526 133.689 12.269C133.125 13.3854 132.843 14.6686 132.843 16.1186C132.843 17.5686 133.119 18.8133 133.67 19.8848C134.222 20.9563 134.991 21.7968 135.985 22.3999C136.992 22.9902 138.165 23.2853 139.511 23.2853C140.858 23.2853 140.723 23.2083 141.223 23.0608C141.73 22.926 142.179 22.7207 142.551 22.4384C142.942 22.1561 143.275 21.816 143.557 21.4118L143.801 23.0415H146.577V15.1626H140.275V17.4211L140.281 17.4275Z" fill="#AA336A"/>
</svg>
