<svg width="32" height="32" viewBox="0 0 32 32" fill="none" xmlns="http://www.w3.org/2000/svg">
  <path d="M30.2065 3.76158C28.8022 1.97151 26.6927 0.823039 24.2626 0.534317L24.1664 0.521484H7.53373L7.48243 0.527899C7.39266 0.540731 7.3029 0.553564 7.21313 0.572812H7.18107C5.4306 0.887198 4.03279 1.65712 3.0197 2.86334L2.87864 3.03657C2.19256 3.91557 1.69884 5.02554 1.4103 6.328L1.141 7.57271C0.737041 9.47828 0.448503 11.0566 0.256144 12.404V12.4297C0.256144 12.4425 0.249731 12.4617 0.243319 12.4746C0.179199 12.9558 0.121492 13.3985 0.0830199 13.8027C0.0830199 13.8027 0.0830199 13.8027 0.0830199 13.8091C0.0766079 13.9118 0.0701967 14.008 0.0637848 14.1042C0.0317249 14.5469 0.0124874 14.9897 0.00607545 15.4388C-0.0259844 17.2032 0.159963 18.974 0.967871 20.578C1.43595 21.5019 2.08356 22.336 2.85299 23.029C4.23157 24.2737 5.97562 25.0436 7.83509 25.1719H7.88639H7.93768C7.98257 25.1719 8.03386 25.1719 8.07875 25.1719C8.12363 25.1719 8.17493 25.1719 8.21981 25.1719H14.5933C15.5359 25.1719 16.472 25.1719 17.4146 25.1719H22.8712C22.8712 25.1719 22.884 25.1719 22.8968 25.1719H22.9225C23.4226 25.544 23.9163 26.0381 24.3459 26.4744C24.5319 26.6668 24.7178 26.8593 24.9038 27.0518C24.9551 27.1031 25.0064 27.1609 25.0576 27.2122C25.1025 27.2635 25.1538 27.3149 25.1987 27.3598C25.2628 27.4239 25.3205 27.4881 25.3782 27.5587L25.4103 27.5908C25.4424 27.6228 25.468 27.6549 25.5001 27.6934C25.577 27.7768 25.6604 27.8666 25.7437 27.9501L26.2823 28.5147L28.2893 30.6127L28.5842 30.9207L28.5971 30.9335C28.5971 30.9399 29.1228 31.4853 29.1228 31.4853L29.5973 28.0463L29.6101 27.9757L29.7063 27.302L29.7192 27.2379L30.8348 18.9997C31.2644 16.2087 31.7517 13.0456 32.0082 10.2995C32.2326 7.85502 31.585 5.53241 30.1936 3.76158H30.2065Z" fill="#FF9A9A"/>
  <path d="M28.226 8.04716L28.2132 8.22681C27.9695 10.8574 27.4886 13.9307 27.0654 16.6447L26.3024 22.233C26.2191 22.8554 26.1293 23.4777 26.0459 24.0937C26.0075 24.0552 25.9754 24.0167 25.9369 23.9846C25.8408 23.8884 25.7382 23.7857 25.642 23.6831L25.0393 23.0735L24.6353 22.6757C24.2121 22.2715 23.8595 21.9571 23.5068 21.6941L23.2696 21.5144C22.8464 21.2129 22.3911 21.0653 21.8397 21.0653H16.1715C15.2033 21.0653 14.2287 21.0653 13.2605 21.0653H10.2725C9.56717 21.0653 8.85544 21.0653 8.15013 21.0653H6.62408C6.54072 21.0653 6.45737 21.0653 6.38043 21.0653C3.68099 20.9113 1.1162 18.6208 0.776362 16.0544L0.763537 15.9261C0.686593 15.2075 0.763536 14.059 0.975131 12.5191V12.4678C1.16749 11.1461 1.44962 9.58701 1.84716 7.71353L2.11647 6.46882C2.37936 5.27543 2.82819 4.2617 3.44374 3.47253L3.57198 3.31213C4.46324 2.24706 5.70075 1.56696 7.25886 1.28466H7.29092C7.30375 1.27824 7.31657 1.27183 7.3294 1.27183C7.39993 1.25899 7.47046 1.24616 7.54099 1.23975H22.6732C26.2511 1.67604 28.4825 4.41569 28.226 8.04075V8.04716Z" fill="#AA336A"/>
  <path d="M0.108897 13.5136C0.147369 13.1479 0.192255 12.7886 0.243551 12.4229C0.243551 12.4357 0.243551 12.4549 0.243551 12.4742C0.179432 12.9554 0.121724 13.3981 0.083252 13.8023C0.0896639 13.7061 0.0960735 13.6098 0.108897 13.5136Z" fill="white"/>
  <path d="M0.0072195 15.4388C0.0136315 14.9896 0.0392809 14.5469 0.0649288 14.1042C0.0649288 14.0016 0.0777519 13.9053 0.0841639 13.8091C0.0264562 14.4443 -0.00560288 14.9896 0.000809092 15.4388H0.0072195Z" fill="white"/>
  <path d="M9.43269 16.1572C8.43884 16.1572 7.58605 15.9455 6.86791 15.522C6.14977 15.0857 5.59834 14.489 5.21362 13.7255C4.8289 12.9492 4.63013 12.0638 4.63013 11.0629C4.63013 10.062 4.82249 9.15088 5.21362 8.38737C5.59834 7.61103 6.15618 7.00792 6.86791 6.57163C7.58605 6.12893 8.43884 5.90437 9.43269 5.90437C10.4265 5.90437 11.6576 6.21234 12.4335 6.82828C13.2158 7.44421 13.7031 8.30397 13.8954 9.42036H11.5743C11.4589 8.91991 11.2216 8.53494 10.8497 8.25905C10.4843 7.97675 10.0034 7.83559 9.41987 7.83559C8.83638 7.83559 8.38754 7.97033 7.99 8.23339C7.60528 8.49645 7.30392 8.86857 7.09874 9.34978C6.89996 9.82456 6.80379 10.3956 6.80379 11.0629C6.80379 11.7301 6.89996 12.2819 7.09874 12.7631C7.30392 13.2379 7.60528 13.6036 7.99 13.8667C8.38754 14.1233 8.86203 14.2516 9.41987 14.2516C9.97771 14.2516 10.4778 14.1297 10.8369 13.8859C11.2024 13.6293 11.4525 13.27 11.5743 12.7952H13.8954C13.7095 13.841 13.2222 14.6687 12.4335 15.2782C11.6576 15.8749 10.6574 16.17 9.43269 16.17V16.1572ZM19.2879 16.1572C18.3453 16.1572 17.5182 15.9519 16.8065 15.5348C16.1076 15.1114 15.5625 14.5211 15.1778 13.764C14.7931 13.0069 14.5943 12.1279 14.5943 11.1142C14.5943 10.1005 14.7931 9.18938 15.1906 8.40662C15.5946 7.62387 16.1781 7.00793 16.9347 6.56522C17.6913 6.12251 18.589 5.89795 19.6406 5.89795C20.6921 5.89795 21.795 6.18025 22.5708 6.75128C23.3531 7.31589 23.8596 8.10507 24.084 9.10597H21.718C21.577 8.70817 21.3269 8.40021 20.9678 8.18206C20.6216 7.96392 20.1727 7.85484 19.6213 7.85484C19.0699 7.85484 18.4736 7.98958 18.0504 8.26547C17.6272 8.52853 17.3066 8.90707 17.0886 9.40111C16.8706 9.88231 16.7616 10.4533 16.7616 11.1142C16.7616 11.775 16.8706 12.3717 17.0886 12.8401C17.3066 13.3149 17.6208 13.6742 18.0376 13.918C18.4543 14.1554 18.9416 14.2709 19.5123 14.2709C20.3266 14.2709 20.9358 14.0592 21.3525 13.6357C21.7757 13.2122 22.0386 12.6797 22.1284 12.0317H19.8201V10.4469H24.2508V15.9904H22.2951L22.1284 14.8419C21.9296 15.1242 21.6924 15.368 21.4231 15.5669C21.1602 15.7658 20.846 15.9134 20.4869 16.0032C20.1407 16.1059 19.7367 16.1572 19.2815 16.1572H19.2879Z" fill="white"/>
</svg>
