<svg width="451" height="21" viewBox="0 0 451 21" fill="none" xmlns="http://www.w3.org/2000/svg">
<path d="M4.21814 11.9024C6.74106 11.6844 10.057 11.7091 12.5819 11.8133C13.3733 11.8453 12.9828 12.1246 13.5295 12.1587C14.5986 12.2249 15.5867 12.0603 16.6436 12.1468C16.994 12.1768 16.5743 12.6122 16.9413 12.634C18.9523 12.7504 20.8445 12.5776 22.877 12.5966C32.9012 12.6907 42.7265 12.5081 52.8665 12.3484C56.2029 12.2956 60.2783 12.5364 63.7215 12.2499C64.1233 12.2161 63.8705 11.8554 63.946 11.8223C65.1307 11.315 64.7573 12.0739 65.5445 12.1457C68.6632 12.4289 72.1357 12.3425 75.1256 12.0962C76.3976 11.9904 75.0949 11.3016 76.3917 11.6686C76.4818 11.6933 76.1722 12.0964 76.5229 12.1261C77.3184 12.1926 78.8176 12.0705 79.4316 12.0803C80.6145 12.1012 80.8112 12.0904 81.9338 12.0559C83.4682 12.0122 85.2976 12.1438 86.9363 11.9981C87.2861 11.9658 86.8082 11.5802 87.3647 11.4924C87.9218 11.4048 89.4016 11.3875 89.9029 11.465C90.4044 11.5424 90.2032 11.8655 90.2939 11.9349C91.0395 12.5206 92.7212 11.6152 92.9431 11.5865C96.9605 11.0902 100.411 11.4531 104.181 11.3209C107.052 11.2192 110.108 10.9538 112.825 10.8813C116.061 10.7966 118.843 10.918 121.985 10.7714C122.318 10.7564 121.912 10.2976 122.317 10.2783C126.604 10.0744 130.942 9.97534 135.228 10.1457C135.658 10.1632 135.119 10.5972 135.55 10.6394C138.196 10.8888 142.415 11.5619 143.911 9.70209C145.698 9.71062 147.855 9.70859 149.478 10.0166C150.52 10.2149 149.532 10.7016 150.794 10.4647C151.079 10.4118 150.693 10.0291 151.121 9.97968C152.922 9.77208 154.893 9.83231 156.662 9.56614C157.022 9.51107 156.911 9.15998 157.011 9.09258C157.849 8.5458 159.323 9.35024 159.641 9.40139C162.053 9.78118 163.791 9.53828 166.009 9.47245C166.524 9.45738 165.899 9.00233 166.394 8.97072C168.944 8.81369 171.644 8.76075 174.169 8.88445C174.731 8.91309 174.23 9.33667 174.499 9.37111C175.686 9.51804 175.921 8.74279 177.057 8.86902C177.296 8.89464 177.174 9.24657 177.219 9.28319C177.919 9.85822 178.479 8.98942 178.653 8.96462C180.856 8.63173 182.328 9.46715 184.465 9.26719C184.721 9.24237 184.127 8.82312 184.848 8.7802C189.617 8.49271 194.755 8.43459 199.484 8.62166C200.22 8.65012 199.708 8.99846 199.755 9.03753C200.528 9.64715 201.001 8.77776 201.24 8.73731C203.146 8.43969 204.949 9.09207 206.204 8.03249C214.245 8.10465 222.295 7.25329 230.266 7.88488C230.369 7.89183 230.2 8.31778 230.405 8.32983C232.871 8.47951 232.375 7.84401 233.966 6.98999C234.367 6.7755 235.637 7.69508 235.748 7.76184C236.155 8.008 235.764 8.64658 235.899 8.69228C237.015 9.04926 236.764 6.9914 238.245 6.93895C238.292 6.94077 238.11 7.3275 238.236 7.36093C238.626 7.46604 239.003 7.3017 239.384 7.41931C240.265 7.69148 240.62 8.68329 241.935 8.05284C242.101 7.97118 241.804 6.80932 243.14 6.81793C243.675 6.82232 246.02 6.72019 246.675 6.77321C247.331 6.82612 246.896 7.21913 246.943 7.23384C248.719 7.67119 248.059 7.90133 248.964 8.6092C249.884 9.31378 249.576 7.56732 249.933 7.35866C250.293 7.15051 251.614 7.5164 251.939 7.6483C252.264 7.78025 251.873 8.03399 252.16 8.10503C254.064 8.56832 252.957 7.20489 253.568 6.9046C255.005 6.19386 256.183 7.4558 257.512 7.53691C257.872 7.5588 257.569 7.2726 257.887 7.2337C259.16 7.08308 259.959 7.46172 261.401 7.03832C261.637 6.96927 262.786 6.14549 263.563 6.69321C263.674 6.77226 263.38 7.1073 263.925 7.16094C264.739 7.24155 266.195 7.26146 267.054 7.12278C267.698 7.01989 266.935 6.51152 267.761 6.64877C268.128 6.71012 267.464 7.04648 268.152 7.13565C268.838 7.22489 270.57 7.15033 271.225 7.11652C271.88 7.08249 271.507 6.68967 271.559 6.6605C271.875 6.49278 273.12 6.25331 273.23 6.24992C278.82 6.00407 283.986 6.50662 289.466 6.08717C289.892 6.05498 289.593 5.63748 289.657 5.62816C291.109 5.39769 290 6.5748 291.03 6.91945C290.852 6.05709 291.459 6.19301 292.474 6.06198C292.962 5.99815 292.684 5.67164 292.727 5.63568C293.454 5.0992 293.998 5.73985 294.136 5.86997C294.647 6.3485 295.162 5.74367 295.507 6.06337C295.852 6.38061 295.102 6.89541 296.095 6.85413C296.363 6.53376 295.598 5.74819 296.346 5.5901C299.141 4.99342 304.494 5.44191 306.752 5.42828C308.99 5.41532 309.762 5.33061 311.096 5.39579C313.506 5.51364 312.604 4.94272 314.074 4.6147C315.542 4.28678 314.875 5.79373 315.099 6.10469C315.318 6.41566 315.533 6.07993 315.797 6.2458C316.06 6.41166 315.512 6.6479 316.118 6.69219C316.735 6.73604 318.421 6.10919 318.625 5.76854C319.062 5.04665 318.278 4.33306 319.915 4.53549C320.009 4.54762 319.72 4.94792 320.079 4.9746C321.228 5.0549 322.383 5.08917 323.53 5.11255C325.297 5.1447 327.042 5.15316 328.724 5.25176C329.111 5.27509 328.782 5.72074 329.007 5.73923C331.342 5.9336 330.494 5.23218 331.774 4.37383C331.515 5.46463 332.275 6.0993 334.071 6.04161C335.148 6.00741 334.945 5.54227 335.624 5.18506C335.828 5.07741 336.592 5.37449 336.72 5.14778C337.152 4.40613 336.371 3.62111 338.272 3.87689C338.355 3.88931 338.107 4.29568 338.392 4.30956C340.231 4.40139 340.422 3.63495 342.36 3.47359C343.828 3.34887 346.69 3.70944 348.397 3.72343C348.411 4.93899 350.006 4.60324 350.679 3.74059C351.833 3.7334 353.061 3.64182 354.151 3.71843C354.526 3.74443 354.293 4.10489 354.342 4.14119C355.086 4.71114 355.537 3.87918 355.779 3.83846C358.504 3.42934 360.562 3.97321 363.149 3.27531C363.238 3.25031 363.356 2.40134 364.057 2.99271C364.102 3.03359 363.279 3.44774 364.472 3.43423C365.65 3.42131 367.921 3.79171 369.571 3.34025C369.968 3.23156 370.95 2.5101 371.765 3.01616C371.874 3.08495 371.767 3.33112 371.925 3.46017C372.452 3.87051 372.706 3.00748 373.332 3.70997C373.959 4.41242 375.225 4.90943 376.842 4.34984C376.887 4.33364 377.271 3.64287 377.803 3.63409C378.655 3.62057 379.852 3.71769 380.714 3.68162C381.127 3.6641 380.847 3.25416 380.919 3.24386C383.751 2.90439 385.718 3.20658 388.781 3.25594C389.335 3.26609 390.877 2.63598 391.99 3.04772C393.184 3.49932 392.072 5.60369 394.719 5.01375C395.825 4.77597 397.105 2.111 399.102 3.39235C402.891 2.91456 406.45 3.47456 410.226 2.8514C410.399 2.82357 410.918 2.07334 411.321 2.06796C411.92 2.06137 412.257 2.38994 412.679 2.39636C414.495 2.42999 416.08 2.07721 417.835 2.05526C418.489 2.04663 418.275 2.40787 419.048 2.39786C419.819 2.38757 420.348 1.90235 421.406 2.08599C422.197 2.22653 423.049 3.14379 424.112 3.21327C424.124 2.27555 424.821 2.26785 426.128 1.96952C426.377 1.91183 426.096 1.59656 426.213 1.55247C426.688 1.36583 427.141 1.61855 427.584 1.4182C427.692 1.37004 427.685 1.05024 427.772 0.992821C428.519 0.492288 429.828 1.16103 430.045 1.2779C430.887 1.72098 431.27 1.28963 431.919 1.45163C432.566 1.61366 431.619 1.88523 432.37 1.96946C433.912 2.14415 435.902 2.01392 437.482 1.96602C438.109 1.94511 437.665 1.53542 437.754 1.52252C439.031 1.36355 440.381 1.76443 441.055 0.886499C442.042 3.04791 441.836 0.642051 443.698 1.00837C443.847 1.03808 444.072 2.06978 443.52 2.24458C442.968 2.4192 442.107 2.1282 441.334 2.39709C441.152 2.46022 440.141 3.47556 439.999 3.5403C438.888 4.04606 438.662 2.49986 438.601 2.41685C437.896 1.52307 436.645 2.62312 436.304 2.70919C434.779 3.10212 433.434 2.93645 432.154 3.22415C431.312 3.4107 431.252 4.43169 430.596 4.42626C428.378 4.4101 427.561 3.02099 425.5 4.33332C425.06 4.61317 425.556 5.70729 423.921 4.8953C423.826 4.84381 422.568 4.09169 421.922 4.62323C421.839 4.69032 421.854 5.01419 421.742 5.04578C420.99 5.25116 420.469 5.01277 419.629 5.16896C418.808 5.32439 417.826 5.5467 416.856 5.47382C416.26 5.43088 415.533 4.8542 415.249 4.71707C414.463 4.32077 413.651 5.05083 413.142 4.55396C412.643 4.05408 413.547 3.23163 412.283 2.94453C412.269 3.78804 412.195 4.65608 412.152 5.50545C409.355 5.58227 406.608 5.41362 403.838 5.55509C403.49 5.57366 403.864 6.01277 403.49 6.04437C401.898 6.17621 400.581 5.90257 398.92 6.09333C397.686 6.24079 396.338 6.7709 395.001 6.94156C394.171 6.00789 392.262 6.40631 390.807 6.37205C390.308 6.36007 390.339 6.1013 389.987 6.03029C388.661 5.76854 389.308 6.59698 388.951 6.74432C387.421 7.37336 387.158 5.45383 385.353 5.56804C385.258 5.57341 384.109 6.64413 383.944 6.71421C382.91 7.16987 383.758 6.36311 383.096 6.31148C381.869 6.21776 381.059 6.00192 379.672 6.35399C379.268 6.45801 378.308 7.13419 377.48 6.66868C377.372 6.60773 377.418 6.26612 377.332 6.24938C375.804 5.97343 375.817 7.04102 374.962 7.43398C374.11 7.82672 372.722 7.14005 372.434 6.93804C371.685 6.41564 372.985 6.68306 373.02 6.62781C373.463 5.96969 372.454 6.11703 371.717 6.08962C371.574 5.04761 370.543 5.14799 370.951 6.06549C370.998 6.16563 371.568 6.0472 371.717 6.08962C371.11 7.13922 369.98 7.31197 368.665 6.3996C368.048 5.972 368.599 5.42729 366.774 5.68552C365.973 5.80125 366.311 6.51007 365.604 6.73231C364.006 7.23881 361.733 6.6485 360.096 6.81363C359.485 6.87419 360.096 7.24681 359.679 7.3018C358.569 7.44903 357.564 7.18915 356.423 7.382C356.32 7.39997 356.589 7.80345 356.232 7.82158C353.63 7.96342 351.229 7.78517 348.5 7.87584C347.186 7.91969 344.756 8.23475 343.369 8.23862C341.03 8.24545 337.933 7.75537 335.945 7.97228C334.622 8.11294 334.926 8.51534 334.364 8.81696C333.281 9.40141 331.258 8.49589 330.981 8.35437C330.973 8.34963 332.141 8.21058 331.509 8.02099C331.129 7.59248 330.994 8.35198 330.981 8.35437C330.783 8.26362 328.531 8.25002 328.07 8.34542C327.824 8.39734 327.976 8.78345 327.848 8.80314C326.479 9.00882 325.09 9.16482 323.678 9.26844C322.005 9.39371 320.301 9.43926 318.559 9.39998C318.503 9.39405 318.571 8.95368 318.441 8.9452C316.594 8.81595 315.475 9.39137 314.006 9.76149C312.535 10.1315 311.341 10.0673 310.423 9.34798C309.276 9.48324 307.67 9.20767 306.741 9.03879C305.812 8.86998 305.711 9.72604 305.63 9.74574C303.117 10.374 301.546 9.94151 298.953 9.95708C297.706 9.96353 295.211 10.1752 293.833 10.317C292.734 10.4308 292.11 10.253 291.126 10.4154C290.993 10.4372 291.141 10.8115 291.101 10.8276C290.018 11.3199 290.513 10.3745 290.28 10.2169C289.434 9.64406 288.914 9.34141 287.501 9.67467C287.175 9.75106 286.264 11.1193 285.664 11.2185C284.886 11.345 285.154 10.8567 284.352 11.0009C284.284 11.0128 284.309 11.3074 283.813 11.3118C281.513 11.3361 278.972 11.2535 276.528 11.369C276.194 11.3837 276.639 11.8367 276.157 11.8655C273.949 11.9986 271.505 12.0671 269.302 11.9251C268.759 11.8887 269.087 11.5491 268.966 11.4559C268.227 10.8923 267.222 11.7841 267.067 11.8059C263.151 12.3548 259.98 11.6909 255.974 12.2003C255.756 12.2296 254.089 13.2062 253.3 12.4463C253.246 12.3958 252.465 11.6175 251.816 12.1911C251.775 12.2269 252.261 12.6247 251.437 12.6113C250.618 12.5978 249.28 12.9216 248.162 12.505C247.804 12.374 246.941 11.6005 245.906 12.2774C245.839 12.3244 244.253 13.8285 243.631 12.8508C243.53 12.6898 243.594 11.6299 242.341 12.2161C242.101 12.3296 242.551 12.5498 241.915 12.7193C240.942 12.9804 239.617 12.7434 238.451 13.2554C238.246 13.346 237.385 14.0939 236.652 13.5747C236.538 13.4933 236.738 13.1332 236.359 13.1069C234.561 12.9802 232.683 13.2821 230.836 13.1023C230.183 13.0393 230.487 12.4578 229.816 12.3283C229.143 12.1989 227.789 12.0991 227.095 12.3842C226.401 12.6694 227.201 13.5512 226.15 13.6607C221.552 14.1374 217.017 13.762 212.409 13.8447C211.725 13.8569 212.303 14.1623 211.295 14.2036C207.629 14.3557 201.214 14.8846 198.013 14.3043C195.434 13.8402 198.642 13.3066 196.677 13.1496C195.728 13.0751 194.74 14.1672 194.512 14.2085C192.294 14.624 190.687 14.2114 188.707 14.4241C188.295 14.4683 188.715 14.8824 188.364 14.9153C187.165 15.0313 185.893 14.8843 184.741 14.9594C184.224 14.9941 184.331 15.3178 183.853 15.3091C182.71 15.2922 181.695 15.19 180.568 14.9223C180.465 14.8979 181.137 14.4672 180.289 14.4816C178.918 14.506 177.233 14.2618 175.675 14.6287C175.213 14.7388 175.221 15.4869 174.202 15.0055C173.989 14.905 174.226 13.9982 173.086 14.8143C172.894 14.9499 170.967 16.0642 169.977 15.4236C169.716 15.255 169.038 14.5433 168.487 14.678C168.413 14.6991 168.729 15.09 168.269 15.1452C166.647 15.3328 164.935 15.3495 163.259 15.5337C162.811 15.5837 163.494 15.9758 162.826 16.0371C160.994 16.2059 158.666 16.1809 156.883 16.1128C156.221 16.087 156.665 15.727 156.616 15.6912C155.822 15.1089 155.393 15.947 155.138 16.0039C153.55 16.3465 152.317 16.0027 150.842 16.1563C150.435 16.1976 150.738 16.5796 150.658 16.6174C149.827 16.9882 150.43 16.2624 149.894 16.2033C148.387 16.0357 146.729 16.1248 145.229 16.2271C144.677 16.2653 145.314 16.6983 144.819 16.7273C141.89 16.9075 138.813 16.9708 135.935 16.8199C135.395 16.7906 135.721 16.4288 135.606 16.3527C134.813 15.8203 133.704 16.6226 133.446 16.7044C132.268 17.0775 131.795 16.784 130.746 16.8783C125.596 17.3452 119.286 17.359 114.408 17.4015C108.108 17.4569 103.166 17.295 97.1585 17.5901C96.7756 17.6084 97.178 18.0607 96.8482 18.0824C92.578 18.343 88.3938 18.306 84.1219 18.5888C83.7715 18.6112 84.2925 19.0351 83.7304 19.0858C82.5792 19.193 81.1068 19.22 79.9421 19.1193C79.3721 19.0711 80.1204 18.6659 79.5468 18.6251C78.2112 18.5292 76.7824 18.5473 75.4154 18.6655C74.8337 18.7168 75.7287 19.1378 74.9713 19.1693C69.8026 19.3934 64.7528 19.6463 59.5085 19.2428C59.1491 19.215 58.8032 18.3083 58.0477 18.5107C57.9992 18.7673 58.0127 19.0668 57.9971 19.3398C50.5002 19.7466 43.0492 19.6864 35.5103 19.8984C35.1923 19.9075 35.7586 20.3746 35.143 20.3946C31.5867 20.5107 28.1361 20.7651 24.4763 20.4081C24.1133 20.3734 24.2687 19.5117 23.2084 19.6779C23.0217 19.708 21.4233 19.8776 21.0154 20.0777C20.96 20.1076 21.2663 20.4967 20.7503 20.5262C17.7513 20.6909 14.6014 20.7088 11.5949 20.5688C11.11 20.5454 11.6102 20.1024 11.2647 20.0821C8.8138 19.941 6.16702 20.3563 3.81846 20.0513C2.24636 19.8455 2.79959 19.0906 1.9439 18.396C1.82289 18.298 0.854386 18.3153 0.789744 17.8962C0.624559 16.8423 1.05324 15.6672 0.821767 14.5457C0.772703 14.3042 -0.514554 14.6108 0.232605 13.997C0.284862 13.9559 1.21795 13.7284 1.44253 13.5212C1.59892 13.3779 1.29366 12.9599 1.61638 12.7722C1.93908 12.5847 2.31282 12.931 2.85078 12.705C3.38841 12.4764 3.13195 11.9978 4.21814 11.9024ZM302.521 8.28645C301.637 7.90827 301.561 9.41043 302.49 9.01889C302.535 8.99819 302.567 8.30493 302.521 8.28645ZM406.59 4.28297C405.435 3.66515 404.724 4.66449 405.525 5.14513C406.316 5.62558 406.948 4.46993 406.59 4.28297ZM418.24 3.35621C416.906 2.88593 416.778 5.01742 418.172 4.53398C418.253 4.50658 418.318 3.38351 418.24 3.35621ZM5.78864 18.0565C5.77608 18.037 5.07967 18.0417 5.06372 18.062C4.70974 18.5505 6.10227 18.5407 5.78864 18.0565ZM429.788 2.38236C429.37 2.11108 428.191 2.48926 428.719 2.82633C429.146 3.09742 430.312 2.7197 429.788 2.38236ZM257.573 8.26669C257.559 8.24484 257.064 8.24207 257.079 8.36787C257.127 8.773 257.81 8.63424 257.573 8.26669ZM449.445 1.57835C446.539 1.61442 444.704 -0.0691085 447.878 0.00240111C448.452 0.015336 446.666 0.611031 447.401 0.740042C448.746 0.974889 449.588 -0.161821 450.973 0.373882C451.224 0.472045 449.611 1.58018 449.44 1.581C449.442 1.58011 449.444 1.57923 449.445 1.57835ZM301.957 6.5053C301.939 6.4861 301.239 6.49203 301.222 6.51226C300.86 7.0011 302.271 6.98942 301.957 6.5053ZM228.442 8.35861C228.404 8.31771 226.807 8.33395 226.756 8.37467C225.951 9.18124 229.179 9.1507 228.442 8.35861ZM348.426 3.75485C349.153 3.24983 350.032 3.16182 350.675 3.74011C349.901 3.73601 349.172 3.7575 348.426 3.75485Z" fill="#FF9A9A"/>
</svg>
