<svg width="72" height="72" viewBox="0 0 72 72" fill="none" xmlns="http://www.w3.org/2000/svg">
<g clip-path="url(#clip0_487_12995)">
<rect x="47" y="4" width="17.7778" height="16.8889" rx="8.44444" fill="#FFE0E0"/>
<rect x="6" y="39" width="17.7778" height="16.8889" rx="8.44444" fill="#FFE0E0"/>
<path fill-rule="evenodd" clip-rule="evenodd" d="M44.3391 33.8102C44.4616 33.7954 44.58 33.7564 44.6873 33.6954C44.7946 33.6344 44.8887 33.5527 44.9641 33.455C45.0395 33.3572 45.0947 33.2455 45.1264 33.1262C45.1582 33.0069 45.1659 32.8825 45.1491 32.7602C45.1407 31.3588 45.5592 29.9879 46.3491 28.8302C47.0993 27.7021 47.9422 26.6384 48.8691 25.6502C50.2162 24.0923 51.6484 22.61 53.1591 21.2102C54.0764 21.4134 55.0102 21.5338 55.9491 21.5702C56.1409 21.5335 56.314 21.431 56.4385 21.2804C56.5629 21.1298 56.631 20.9406 56.631 20.7452C56.631 20.5499 56.5629 20.3606 56.4385 20.21C56.314 20.0595 56.1409 19.957 55.9491 19.9202C50.6091 19.3802 48.2691 15.9002 48.5691 12.4502C48.8028 10.55 49.7658 8.81498 51.2547 7.6115C52.7437 6.40801 54.6421 5.83025 56.5491 6.00022C58.2694 5.96717 59.9346 6.60725 61.1898 7.78406C62.4451 8.96086 63.1912 10.5814 63.2691 12.3002C63.4436 13.1828 63.4422 14.0911 63.2651 14.9732C63.0881 15.8552 62.7387 16.6937 62.2371 17.4405C61.7355 18.1874 61.0915 18.8279 60.3419 19.3255C59.5924 19.8231 58.7521 20.1679 57.8691 20.3402C57.6224 20.372 57.3985 20.5005 57.2466 20.6975C57.0947 20.8944 57.0272 21.1436 57.0591 21.3902C57.0909 21.6369 57.2194 21.8608 57.4163 22.0127C57.6132 22.1646 57.8624 22.232 58.1091 22.2002C59.156 22.1076 60.175 21.8121 61.1091 21.3302C61.8521 22.1628 62.5245 23.0559 63.1191 24.0002C63.4791 24.5402 63.8091 25.0802 64.1091 25.6202C64.4391 26.1902 64.7691 26.7602 65.0691 27.3302C65.7974 28.7483 66.4094 30.2231 66.8991 31.7402C66.9205 31.8595 66.9657 31.9733 67.0322 32.0747C67.0986 32.1761 67.1849 32.263 67.2857 32.3303C67.3866 32.3975 67.5 32.4437 67.6191 32.466C67.7383 32.4883 67.8607 32.4864 67.9791 32.4602C68.2217 32.4164 68.437 32.278 68.5777 32.0755C68.7183 31.873 68.7728 31.6229 68.7291 31.3802C68.6301 29.619 68.3178 27.8762 67.7991 26.1902C67.587 25.4316 67.2953 24.6976 66.9291 24.0002C66.5334 23.3163 66.0712 22.6732 65.5491 22.0802C64.7846 21.3083 63.9282 20.6332 62.9991 20.0702C64.0589 19.0264 64.8768 17.7627 65.3952 16.3683C65.9135 14.974 66.1197 13.4829 65.9991 12.0002C65.9874 10.762 65.7308 9.53828 65.2443 8.39957C64.7578 7.26086 64.0508 6.22963 63.1641 5.36524C62.2774 4.50086 61.2285 3.82039 60.0778 3.36301C58.927 2.90564 57.6972 2.68038 56.4591 2.70022C53.8063 2.61783 51.2265 3.57571 49.2703 5.36935C47.3141 7.163 46.1365 9.65029 45.9891 12.3002C45.9404 13.9963 46.3887 15.6696 47.2789 17.1141C48.169 18.5586 49.4622 19.7113 50.9991 20.4302C49.7218 21.0961 48.5156 21.8902 47.3991 22.8002C46.3335 23.7046 45.4128 24.7669 44.6691 25.9502C43.9769 26.9722 43.4979 28.1233 43.2608 29.3346C43.0237 30.546 43.0333 31.7927 43.2891 33.0002C43.2997 33.1244 43.3361 33.2451 43.3958 33.3545C43.4555 33.464 43.5373 33.5598 43.6361 33.636C43.7348 33.7121 43.8482 33.7669 43.9693 33.7969C44.0903 33.8269 44.2162 33.8315 44.3391 33.8102Z" fill="#10112A"/>
<path fill-rule="evenodd" clip-rule="evenodd" d="M25.2601 59.4307C24.9008 58.7623 24.4789 58.1294 24.0001 57.5407C23.2464 56.7313 22.389 56.0252 21.4501 55.4407C22.5035 54.4047 23.3178 53.1511 23.836 51.7675C24.3542 50.3839 24.5638 48.9038 24.4501 47.4307C24.4467 46.1784 24.1921 44.9395 23.7013 43.7874C23.2105 42.6353 22.4934 41.5933 21.5927 40.7234C20.6919 39.8534 19.6257 39.173 18.4572 38.7225C17.2888 38.272 16.0418 38.0605 14.7901 38.1007C12.1382 38.0025 9.55392 38.951 7.59512 40.7414C5.63632 42.5318 4.46003 45.0206 4.32011 47.6707C4.26881 49.3635 4.71269 51.0344 5.5973 52.4786C6.48192 53.9227 7.7688 55.0773 9.30011 55.8007C8.02285 56.4666 6.81664 57.2607 5.7001 58.1707C4.64519 59.0773 3.73473 60.1395 3.00011 61.3207C2.30394 62.3465 1.82276 63.5026 1.58558 64.7195C1.34841 65.9363 1.36015 67.1885 1.62011 68.4007C1.63457 68.5223 1.67369 68.6396 1.73508 68.7456C1.79646 68.8515 1.87882 68.9438 1.97711 69.0168C2.0754 69.0898 2.18756 69.142 2.30671 69.1702C2.42587 69.1984 2.54952 69.2019 2.67011 69.1807C2.79265 69.1659 2.91103 69.1269 3.01834 69.0659C3.12565 69.0049 3.21974 68.9231 3.29513 68.8254C3.37052 68.7277 3.42571 68.6159 3.45747 68.4966C3.48922 68.3774 3.49692 68.253 3.4801 68.1307C3.4717 66.7292 3.89027 65.3584 4.6801 64.2007C5.43033 63.0725 6.27324 62.0089 7.20011 61.0207C8.55491 59.4698 9.98671 57.988 11.4901 56.5807C12.4021 56.813 13.339 56.9339 14.2801 56.9407C14.472 56.9039 14.645 56.8014 14.7695 56.6509C14.894 56.5003 14.9621 56.311 14.9621 56.1157C14.9621 55.9203 14.894 55.7311 14.7695 55.5805C14.645 55.4299 14.472 55.3274 14.2801 55.2907C9.00011 54.7507 6.7201 51.2707 7.0201 47.8207C7.22493 45.8987 8.17559 44.1338 9.66778 42.9053C11.16 41.6767 13.0746 41.0827 15.0001 41.2507C16.7198 41.25 18.3718 41.9206 19.6045 43.1197C20.8372 44.3188 21.5532 45.9516 21.6001 47.6707C21.9532 49.4489 21.586 51.2945 20.5791 52.8021C19.5722 54.3096 18.0079 55.3558 16.2301 55.7107C16.108 55.7245 15.9898 55.7622 15.8822 55.8217C15.7746 55.8811 15.6799 55.9612 15.6033 56.0573C15.5266 56.1534 15.4697 56.2637 15.4357 56.3818C15.4017 56.4999 15.3913 56.6236 15.4051 56.7457C15.4189 56.8678 15.4566 56.986 15.5161 57.0936C15.5756 57.2011 15.6556 57.2959 15.7517 57.3725C15.8479 57.4491 15.9581 57.5061 16.0762 57.5401C16.1943 57.5741 16.318 57.5845 16.4401 57.5707C17.4871 57.4781 18.506 57.1826 19.4401 56.7007C20.1832 57.5333 20.8555 58.4263 21.4501 59.3707C21.8085 59.9031 22.139 60.4539 22.4401 61.0207C22.7701 61.5607 23.1001 62.1307 23.4001 62.7007C24.1284 64.1187 24.7404 65.5936 25.2301 67.1107C25.319 67.2988 25.4684 67.4516 25.6545 67.5447C25.8405 67.6379 26.0524 67.666 26.2562 67.6245C26.4601 67.583 26.6442 67.4744 26.779 67.316C26.9139 67.1576 26.9917 66.9585 27.0001 66.7507C26.9011 64.9894 26.5889 63.2467 26.0701 61.5607C25.8683 60.8266 25.5971 60.1134 25.2601 59.4307Z" fill="#10112A"/>
<path fill-rule="evenodd" clip-rule="evenodd" d="M5.36978 30.8112C8.93204 33.3618 13.2301 34.6786 17.6098 34.5612C23.7641 34.3842 29.9036 33.8634 35.9998 33.0012C36.1116 32.9978 36.2215 32.9712 36.3226 32.9231C36.4237 32.8751 36.5137 32.8067 36.5869 32.7221C36.6602 32.6375 36.7152 32.5387 36.7484 32.4318C36.7816 32.325 36.7923 32.2124 36.7798 32.1012C36.7722 31.9947 36.7436 31.8908 36.6957 31.7954C36.6478 31.7 36.5816 31.615 36.5007 31.5453C36.4199 31.4756 36.326 31.4226 36.2246 31.3893C36.1232 31.356 36.0162 31.343 35.9098 31.3512C29.9327 32.0203 23.9242 32.3708 17.9098 32.4012C14.0923 32.3796 10.3855 31.116 7.34978 28.8012C5.90217 27.411 4.76593 25.7296 4.01608 23.8679C3.26623 22.0062 2.91984 20.0066 2.99978 18.0012C2.8071 14.0036 4.11212 10.0779 6.65978 6.99121C8.43845 5.22842 10.7915 4.16369 13.2898 3.99121C15.9098 3.68718 18.5641 4.05899 20.9998 5.07121C22.203 5.56587 23.2847 6.31549 24.1703 7.26845C25.056 8.2214 25.7245 9.35502 26.1298 10.5912C27.5698 14.7312 27.2098 19.7412 28.8898 23.7612C29.5835 25.3957 30.6896 26.8222 32.0998 27.9012C34.0594 29.3889 36.1957 30.6283 38.4598 31.5912C38.5698 31.6476 38.6901 31.6815 38.8134 31.6909C38.9367 31.7002 39.0607 31.6849 39.178 31.6458C39.2953 31.6067 39.4037 31.5446 39.4967 31.4631C39.5897 31.3816 39.6656 31.2824 39.7198 31.1712C39.7939 30.9576 39.7927 30.7249 39.7163 30.5121C39.6399 30.2992 39.4929 30.1189 39.2998 30.0012C37.1637 29.0441 35.1495 27.8355 33.2998 26.4012C32.2054 25.5037 31.3499 24.3494 30.8098 23.0412C29.0998 18.0012 29.9998 12.0012 27.6298 7.47121C26.3935 5.2194 24.44 3.44542 22.0798 2.43121C19.2512 1.19052 16.1578 0.674957 13.0798 0.931214C9.80196 1.14119 6.7065 2.5134 4.34978 4.80121C1.29706 8.50074 -0.255377 13.2116 -0.00022196 18.0012C-0.054883 20.3938 0.395057 22.7711 1.32029 24.9782C2.24553 27.1853 3.62531 29.1728 5.36978 30.8112Z" fill="#10112A"/>
<path fill-rule="evenodd" clip-rule="evenodd" d="M67.6507 41.4015C65.3338 39.1086 62.2641 37.7336 59.0107 37.5315C55.932 37.2597 52.8348 37.7759 50.0107 39.0315C47.6475 40.0261 45.6911 41.7921 44.4607 44.0415C41.9707 48.6015 42.9907 54.6915 41.1607 59.5515C40.6116 60.9042 39.723 62.0925 38.5807 63.0015C36.7319 64.4454 34.7177 65.664 32.5807 66.6315C32.3618 66.7469 32.1959 66.9424 32.1176 67.1772C32.0394 67.4119 32.0548 67.6679 32.1607 67.8915C32.2813 68.1052 32.477 68.2666 32.7098 68.3442C32.9426 68.4218 33.196 68.4101 33.4207 68.3115C35.6799 67.3266 37.8147 66.0779 39.7807 64.5915C41.183 63.517 42.2879 62.1024 42.9907 60.4815C44.6707 56.4315 44.3107 51.4815 45.7507 47.2815C46.1537 46.0114 46.8337 44.8466 47.7416 43.8713C48.6495 42.8959 49.7626 42.1343 51.0007 41.6415C53.4115 40.6547 56.0328 40.2935 58.6207 40.5915C61.119 40.764 63.472 41.8287 65.2507 43.5915C67.814 46.651 69.1503 50.553 69.0007 54.5415C69.105 56.5074 68.8018 58.4736 68.11 60.3167C67.4182 62.1597 66.3528 63.8399 64.9807 65.2515C61.9422 67.5575 58.2351 68.8107 54.4207 68.8215C48.4054 68.8207 42.3953 68.4701 36.4207 67.7715C36.2992 67.7482 36.1741 67.7521 36.0542 67.7828C35.9344 67.8135 35.8228 67.8703 35.7275 67.9491C35.6321 68.0279 35.5554 68.1268 35.5027 68.2387C35.45 68.3506 35.4226 68.4728 35.4226 68.5965C35.4226 68.7202 35.45 68.8424 35.5027 68.9543C35.5554 69.0662 35.6321 69.1651 35.7275 69.244C35.8228 69.3228 35.9344 69.3796 36.0542 69.4103C36.1741 69.4409 36.2992 69.4448 36.4207 69.4215C42.4842 70.3306 48.5937 70.9015 54.7207 71.1315C59.1003 71.2489 63.3984 69.9321 66.9607 67.3815C68.6417 65.7177 69.958 63.7222 70.8257 61.5219C71.6934 59.3217 72.0935 56.9649 72.0007 54.6015C72.2677 49.8103 70.7139 45.0952 67.6507 41.4015Z" fill="#10112A"/>
<path fill-rule="evenodd" clip-rule="evenodd" d="M13.4404 13.8907H15.0004H16.5604H20.3104C20.561 13.9305 20.8172 13.8691 21.0225 13.72C21.2279 13.5709 21.3656 13.3464 21.4054 13.0957C21.4452 12.8451 21.3837 12.5889 21.2346 12.3836C21.0856 12.1782 20.861 12.0405 20.6104 12.0007C19.3504 11.6107 18.1204 11.2207 16.8304 10.9507C16.2771 10.8347 15.7152 10.7645 15.1504 10.7407C14.5813 10.6958 14.0095 10.6958 13.4404 10.7407C12.1131 10.9223 10.8068 11.2338 9.54037 11.6707C9.43041 11.7007 9.32802 11.7535 9.23988 11.8258C9.15174 11.898 9.07984 11.9881 9.02887 12.09C8.97791 12.1919 8.94902 12.3035 8.94411 12.4173C8.9392 12.5312 8.95837 12.6448 9.00037 12.7507C9.03029 12.9686 9.14445 13.166 9.31833 13.3007C9.49222 13.4353 9.71196 13.4963 9.93037 13.4707C11.0404 13.5007 12.2104 13.7707 13.4404 13.8907Z" fill="#AA336A"/>
<path fill-rule="evenodd" clip-rule="evenodd" d="M51.6892 50.552H55.4392H56.9992H58.5592C59.7892 50.552 60.9592 50.162 62.2492 50.102C62.3652 50.1338 62.4867 50.1403 62.6054 50.1211C62.7242 50.1019 62.8374 50.0575 62.9375 49.9907C63.0376 49.9239 63.1221 49.8365 63.1855 49.7342C63.2488 49.632 63.2894 49.5173 63.3046 49.398C63.3198 49.2786 63.3092 49.1574 63.2735 49.0426C63.2378 48.9277 63.1778 48.8218 63.0977 48.7321C63.0175 48.6425 62.919 48.571 62.8089 48.5227C62.6987 48.4744 62.5795 48.4502 62.4592 48.452C61.1938 48.0116 59.8872 47.7 58.5592 47.522C57.9901 47.477 57.4183 47.477 56.8492 47.522C56.2859 47.5624 55.7251 47.6325 55.1692 47.732C53.8893 48.0184 52.6272 48.379 51.3892 48.812C51.1447 48.8561 50.9268 48.9933 50.7814 49.1947C50.6359 49.3961 50.5742 49.646 50.6092 49.892C50.6727 50.118 50.8193 50.3116 51.0196 50.4341C51.2199 50.5565 51.4591 50.5986 51.6892 50.552Z" fill="#AA336A"/>
<path fill-rule="evenodd" clip-rule="evenodd" d="M8.21881 22.2009C8.24338 22.3059 8.28866 22.4049 8.352 22.4922C8.41534 22.5794 8.49547 22.6532 8.58768 22.709C8.67988 22.7649 8.78232 22.8018 8.88898 22.8176C8.99564 22.8334 9.10437 22.8277 9.20881 22.8009H13.4388H15.2388L17.0388 22.6209L21.3288 22.0809C21.451 22.0849 21.5727 22.0648 21.6871 22.0217C21.8014 21.9787 21.9062 21.9135 21.9953 21.8299C22.0845 21.7463 22.1563 21.646 22.2067 21.5346C22.257 21.4232 22.2849 21.3031 22.2888 21.1809C22.2928 21.0588 22.2727 20.937 22.2296 20.8227C22.1866 20.7083 22.1214 20.6035 22.0378 20.5144C21.9542 20.4252 21.8539 20.3534 21.7425 20.3031C21.6311 20.2527 21.511 20.2248 21.3888 20.2209C19.9299 19.9535 18.4578 19.7632 16.9788 19.6509C16.3396 19.6059 15.698 19.6059 15.0588 19.6509C14.4225 19.6698 13.7896 19.7502 13.1688 19.8909C11.7395 20.1955 10.343 20.6376 8.99881 21.2109C8.87977 21.2175 8.76349 21.2493 8.65771 21.3043C8.55192 21.3593 8.45905 21.4361 8.38526 21.5298C8.31148 21.6234 8.25848 21.7317 8.22978 21.8474C8.20108 21.9631 8.19734 22.0836 8.21881 22.2009Z" fill="#AA336A"/>
<path fill-rule="evenodd" clip-rule="evenodd" d="M49.7093 57.7209C49.7131 57.8457 49.742 57.9685 49.7942 58.0819C49.8464 58.1953 49.9209 58.297 50.0133 58.381C50.1057 58.465 50.2141 58.5295 50.3319 58.5707C50.4498 58.6119 50.5747 58.629 50.6993 58.6209L54.9593 59.1609L56.7593 59.3409H58.5593H62.7893C63.0039 59.3859 63.2276 59.3451 63.4126 59.2274C63.5976 59.1097 63.7292 58.9243 63.7793 58.7109C63.8061 58.6064 63.8118 58.4977 63.796 58.391C63.7803 58.2844 63.7434 58.182 63.6875 58.0897C63.6316 57.9975 63.5578 57.9174 63.4706 57.8541C63.3833 57.7907 63.2843 57.7455 63.1793 57.7209C61.7891 57.1177 60.3418 56.6554 58.8593 56.3409C58.2293 56.3409 57.5993 56.1609 56.9393 56.1009C56.2793 56.0409 55.6793 56.1009 55.0493 56.1009C53.5701 56.2112 52.098 56.4015 50.6393 56.6709C50.5079 56.6744 50.3785 56.7049 50.2593 56.7605C50.1401 56.8161 50.0336 56.8956 49.9464 56.994C49.8592 57.0925 49.7932 57.2078 49.7524 57.3328C49.7116 57.4579 49.697 57.5899 49.7093 57.7209Z" fill="#AA336A"/>
</g>
<defs>
<clipPath id="clip0_487_12995">
<rect width="72" height="72" fill="white"/>
</clipPath>
</defs>
</svg>
