<svg width="138" height="21" viewBox="0 0 138 21" fill="none" xmlns="http://www.w3.org/2000/svg">
<path d="M1.06071 11.965C1.81829 11.7469 2.84602 11.7709 3.63734 11.8743C3.88528 11.9061 3.79329 12.1848 3.9658 12.2186C4.30316 12.2845 4.59171 12.1201 4.92738 12.2061C5.03877 12.2359 4.95381 12.6705 5.06951 12.6922C5.70322 12.8078 6.27044 12.635 6.90076 12.6536C10.0096 12.7453 13.0284 12.5611 16.1469 12.3996C17.173 12.3462 18.4577 12.5855 19.4928 12.299C19.6135 12.2652 19.4982 11.9054 19.5182 11.8723C19.8322 11.366 19.7949 12.1232 20.0456 12.1946C21.0389 12.4765 22.1037 12.3896 23.0027 12.1432C23.385 12.0373 22.9114 11.3505 23.3501 11.7163C23.3805 11.741 23.3263 12.1432 23.4378 12.1727C23.6905 12.2389 24.1415 12.1168 24.3323 12.1264C24.7001 12.147 24.7599 12.1362 25.1034 12.1016C25.5733 12.0577 26.1524 12.1886 26.644 12.0428C26.7489 12.0105 26.5614 11.6259 26.7244 11.5383C26.8876 11.4507 27.3433 11.4332 27.5063 11.5103C27.6693 11.5875 27.6404 11.9099 27.6756 11.979C27.9664 12.5632 28.3932 11.6596 28.4588 11.631C29.6497 11.135 30.7536 11.4962 31.9057 11.3635C32.7829 11.2615 33.7004 10.9961 34.533 10.9232C35.5248 10.838 36.3971 10.9585 37.3537 10.8116C37.4548 10.7965 37.2821 10.3389 37.4055 10.3195C38.7099 10.1152 40.0406 10.0155 41.3832 10.1846C41.5181 10.2019 41.3962 10.635 41.5338 10.677C42.3776 10.9252 43.7514 11.5958 44.0221 9.74014C44.5752 9.74827 45.2422 9.74576 45.7758 10.0527C46.1183 10.2503 45.8631 10.736 46.2289 10.4995C46.3114 10.4466 46.1527 10.0649 46.2798 10.0155C46.8151 9.80804 47.4309 9.86771 47.9503 9.6018C48.0559 9.54678 47.9853 9.19655 48.0093 9.12929C48.2119 8.58365 48.751 9.38583 48.8543 9.4368C49.6393 9.81517 50.1514 9.57249 50.8305 9.50634C50.988 9.4912 50.7479 9.03736 50.8975 9.00573C51.6696 8.84855 52.4992 8.79512 53.2924 8.91801C53.4693 8.94646 53.3579 9.36913 53.4448 9.40343C53.8271 9.54976 53.8196 8.77632 54.1837 8.902C54.2603 8.92752 54.2589 9.27863 54.2766 9.31516C54.5525 9.88866 54.6359 9.02182 54.6871 8.99704C55.3343 8.66443 55.8751 9.49758 56.5153 9.29764C56.5919 9.27282 56.365 8.8547 56.5833 8.81173C58.0278 8.52395 59.6108 8.46483 61.092 8.65047C61.3225 8.67871 61.2 9.02631 61.2188 9.06529C61.5212 9.67321 61.5774 8.80586 61.6472 8.76544C62.2055 8.46814 62.8304 9.11857 63.1086 8.06128C65.6026 8.13152 68.0027 7.28057 70.5331 7.90887C70.5656 7.91579 70.5576 8.34073 70.6222 8.35271C71.4002 8.50151 71.181 7.86766 71.5843 7.0154C71.6859 6.80135 72.1738 7.71841 72.2152 7.78499C72.3665 8.03046 72.3119 8.66756 72.3584 8.71312C72.7403 9.069 72.4493 7.01622 72.9017 6.96359C72.9162 6.9654 72.9004 7.35122 72.9427 7.38454C73.0741 7.48931 73.1736 7.32529 73.3037 7.44254C73.6053 7.71375 73.8172 8.70313 74.1585 8.07394C74.2014 7.99244 73.9887 6.83349 74.4029 6.84181C74.5685 6.84607 75.2828 6.7437 75.4909 6.79646C75.6993 6.8491 75.6055 7.24123 75.6216 7.25589C76.2162 7.6918 76.036 7.92152 76.3894 8.62745C76.7477 9.32999 76.4703 7.58798 76.5594 7.37974C76.6488 7.17202 77.0953 7.53674 77.2094 7.66824C77.3236 7.79981 77.2292 8.05299 77.3254 8.1238C77.9621 8.58556 77.4782 7.22572 77.6357 6.92605C78.0062 6.21676 78.5014 7.47533 78.9209 7.55597C79.0343 7.57773 78.9109 7.2923 79.0052 7.25343C79.3842 7.10279 79.6697 7.48041 80.0716 7.05774C80.1376 6.98882 80.4069 6.16684 80.7043 6.71305C80.7466 6.79188 80.6908 7.12614 80.8648 7.17953C81.1249 7.25978 81.577 7.27934 81.8281 7.14082C82.0175 7.03792 81.7282 6.53106 81.9979 6.66778C82.1177 6.7289 81.9474 7.06456 82.1695 7.15337C82.3908 7.24224 82.9186 7.16751 83.1175 7.13365C83.3164 7.09957 83.1602 6.7078 83.1732 6.67869C83.2532 6.51133 83.6134 6.27219 83.6471 6.2688C85.3502 6.02231 87 6.52247 88.6501 6.10297C88.7784 6.07077 88.6423 5.65439 88.6614 5.64508C89.086 5.4149 88.8663 6.58925 89.2207 6.93282C89.0756 6.07268 89.2773 6.20813 89.5773 6.07723C89.7216 6.01347 89.6019 5.68778 89.6113 5.65193C89.781 5.11654 90.0154 5.75554 90.0718 5.88528C90.2798 6.36248 90.3756 5.75909 90.5159 6.07791C90.6558 6.39427 90.4777 6.90791 90.7804 6.86653C90.8296 6.54692 90.5108 5.76351 90.7257 5.60567C91.5268 5.00999 93.23 5.45607 93.9261 5.44206C94.6161 5.42873 94.8477 5.34388 95.2662 5.40868C96.0236 5.52574 95.6847 4.95648 96.1047 4.62901C96.5238 4.30166 96.4763 5.80482 96.5781 6.11491C96.6786 6.42503 96.7097 6.09013 96.8088 6.25551C96.9075 6.42088 96.7629 6.65662 96.9549 6.70067C97.1521 6.74406 97.6062 6.11865 97.6336 5.77882C97.6926 5.05874 97.3754 4.34718 97.9026 4.54875C97.9329 4.56082 97.8857 4.96013 97.9994 4.98667C98.3548 5.06473 98.7074 5.09892 99.0566 5.12198C99.6147 5.15493 100.163 5.16176 100.702 5.26124C100.824 5.28444 100.769 5.72897 100.841 5.74736C101.583 5.9408 101.249 5.24117 101.553 4.38494C101.588 5.47286 101.89 6.10568 102.439 6.04778C102.768 6.01345 102.657 5.5496 102.829 5.19322C102.88 5.08582 103.148 5.38194 103.163 5.15581C103.218 4.41615 102.896 3.63316 103.51 3.88794C103.537 3.90031 103.503 4.30563 103.593 4.31941C104.171 4.41063 104.149 3.64624 104.73 3.48494C105.173 3.36002 106.094 3.71924 106.624 3.73281C106.757 4.94506 107.216 4.60965 107.332 3.74936C107.688 3.74196 108.057 3.6504 108.402 3.72658C108.521 3.75243 108.488 4.11192 108.507 4.1481C108.798 4.71626 108.847 3.88673 108.92 3.84582C109.718 3.43729 110.411 3.97937 111.138 3.28272C111.163 3.25777 111.108 2.41123 111.388 3.00077C111.407 3.04151 111.197 3.45463 111.564 3.44092C111.926 3.42788 112.67 3.79649 113.131 3.3461C113.242 3.23765 113.468 2.51813 113.774 3.02254C113.815 3.09109 113.808 3.33661 113.872 3.46517C114.081 3.87402 114.065 3.01362 114.335 3.71387C114.604 4.41411 115.05 4.90936 115.489 4.35111C115.502 4.33481 115.546 3.64606 115.71 3.6372C115.972 3.62355 116.352 3.72014 116.615 3.684C116.741 3.66644 116.609 3.25782 116.63 3.24753C117.47 2.90836 118.112 3.20917 119.064 3.25777C119.236 3.26783 119.646 2.63919 120.034 3.04945C120.453 3.49936 120.341 5.59725 121.095 5.00857C121.413 4.77104 121.512 2.11479 122.273 3.39129C123.392 2.91437 124.557 3.47142 125.656 2.84951C125.707 2.82174 125.783 2.07404 125.907 2.0686C126.091 2.06191 126.233 2.38924 126.364 2.39555C126.93 2.42855 127.381 2.07667 127.921 2.05444C128.123 2.04571 128.098 2.40566 128.336 2.39551C128.574 2.38497 128.681 1.90152 129.03 2.08423C129.291 2.2241 129.66 3.13758 129.998 3.20655C129.894 2.27239 130.108 2.26462 130.479 1.96704C130.549 1.90953 130.426 1.59553 130.457 1.55159C130.582 1.36557 130.752 1.6172 130.866 1.41755C130.894 1.36954 130.854 1.05099 130.875 0.99378C131.049 0.49497 131.531 1.16088 131.611 1.27721C131.923 1.71838 131.992 1.28858 132.212 1.44981C132.431 1.61105 132.17 1.88175 132.412 1.96547C132.91 2.13905 133.511 2.00884 133.995 1.96076C134.186 1.93978 134.001 1.53189 134.027 1.51902C134.404 1.36038 134.869 1.75928 134.975 0.884834C135.535 3.03697 135.188 0.64122 135.808 1.00555C135.857 1.0351 136.049 2.0624 135.898 2.23662C135.748 2.41065 135.447 2.12109 135.239 2.38905C135.19 2.45198 134.996 3.46335 134.96 3.52787C134.675 4.03184 134.423 2.49211 134.395 2.40945C134.071 1.51953 133.813 2.61537 133.717 2.70118C133.29 3.09294 132.854 2.92831 132.491 3.21519C132.252 3.40123 132.352 4.41813 132.148 4.41299C131.458 4.39754 131.044 3.01409 130.557 4.3219C130.452 4.6009 130.732 5.69063 130.132 4.88224C130.096 4.831 129.621 4.08198 129.481 4.61182C129.463 4.67868 129.504 5.00133 129.473 5.03283C129.264 5.23766 129.075 5.00031 128.832 5.15616C128.594 5.31137 128.316 5.53307 128.007 5.46076C127.818 5.41811 127.526 4.84386 127.423 4.70726C127.134 4.3126 126.965 5.04025 126.751 4.54529C126.539 4.04747 126.727 3.22763 126.303 2.94186C126.394 3.78239 126.469 4.64737 126.552 5.49375C125.694 5.57097 124.822 5.40399 123.981 5.5456C123.875 5.5642 124.039 6.00173 123.927 6.03332C123.447 6.16534 123.01 5.89282 122.517 6.0834C122.149 6.2309 121.792 6.7595 121.396 6.92999C121.034 5.99977 120.488 6.39722 120.034 6.36347C119.876 6.35188 119.859 6.09377 119.742 6.0231C119.303 5.7625 119.594 6.58817 119.499 6.73513C119.094 7.36262 118.804 5.449 118.256 5.5635C118.227 5.56887 117.989 6.63655 117.945 6.70646C117.675 7.16096 117.849 6.35649 117.639 6.30517C117.249 6.21197 116.973 5.99721 116.583 6.34846C116.469 6.45226 116.246 7.12663 115.939 6.66271C115.899 6.60198 115.876 6.26138 115.848 6.24471C115.343 5.97018 115.464 7.0344 115.242 7.42643C115.021 7.81821 114.517 7.13391 114.406 6.93256C114.118 6.41187 114.549 6.67821 114.554 6.62311C114.619 5.96689 114.324 6.11384 114.091 6.08693C113.935 5.04802 113.627 5.14833 113.852 6.06304C113.877 6.16287 114.041 6.04467 114.091 6.08693C114.017 7.13356 113.686 7.30609 113.181 6.39668C112.944 5.9705 113.057 5.42709 112.518 5.68521C112.283 5.80077 112.464 6.50746 112.269 6.72922C111.83 7.23455 111.061 6.64669 110.573 6.81165C110.39 6.87218 110.619 7.2436 110.496 7.29852C110.169 7.44558 109.83 7.18666 109.498 7.37922C109.468 7.39716 109.594 7.79944 109.486 7.8176C108.693 7.95993 107.935 7.78236 107.098 7.87368C106.696 7.91773 105.979 8.23229 105.548 8.23671C104.825 8.24409 103.817 7.75584 103.223 7.97284C102.829 8.11341 102.966 8.51466 102.824 8.81559C102.551 9.3987 101.829 8.49606 101.728 8.35498C101.726 8.35025 102.072 8.21132 101.856 8.02237C101.694 7.5951 101.732 8.3526 101.728 8.35498C101.656 8.26476 100.959 8.25152 100.826 8.3468C100.756 8.39863 100.844 8.78369 100.806 8.80335C100.397 9.01268 99.9757 9.17058 99.5412 9.27417C99.0444 9.39513 98.5299 9.43896 97.9955 9.40076C97.9777 9.39485 97.9524 8.95562 97.911 8.94719C97.327 8.81862 97.0397 9.39299 96.6248 9.76241C96.2087 10.1318 95.8327 10.068 95.4732 9.35076C95.1331 9.48587 94.6058 9.21155 94.3016 9.04325C93.9964 8.87507 94.055 9.72895 94.0322 9.74862C93.3212 10.3758 92.7886 9.9449 91.9887 9.96095C91.6038 9.96764 90.8544 10.1793 90.4433 10.321C90.1157 10.4348 89.9026 10.2577 89.6157 10.4199C89.577 10.4416 89.6619 10.815 89.6511 10.831C89.3677 11.3223 89.422 10.3792 89.3336 10.2221C89.012 9.65085 88.8195 9.34908 88.4175 9.68179C88.3248 9.75806 88.1858 11.123 88.0106 11.2221C87.7832 11.3485 87.8158 10.8613 87.5818 11.0054C87.5619 11.0173 87.6003 11.3111 87.4476 11.3156C86.7387 11.3404 85.9444 11.2586 85.2008 11.3743C85.0991 11.389 85.2839 11.8408 85.1377 11.8697C84.4678 12.003 83.7198 12.0718 83.0236 11.9306C82.8522 11.8944 82.918 11.5556 82.8709 11.4626C82.5837 10.9006 82.3664 11.7904 82.3196 11.8122C81.1658 12.3607 80.117 11.699 78.9303 12.2081C78.8657 12.2374 78.452 13.2119 78.1289 12.4541C78.107 12.4038 77.7845 11.6275 77.6434 12.1998C77.6347 12.2356 77.8262 12.6323 77.5701 12.6191C77.3157 12.6058 76.9346 12.9292 76.546 12.5138C76.4216 12.3832 76.0746 11.6118 75.8246 12.2873C75.8088 12.3342 75.4746 13.835 75.1808 12.8598C75.1329 12.6992 75.0426 11.6419 74.7159 12.2269C74.6536 12.3401 74.8156 12.5597 74.6365 12.729C74.3629 12.9896 73.928 12.7536 73.6206 13.2645C73.5666 13.3549 73.3779 14.1013 73.0977 13.5834C73.0538 13.5023 73.0782 13.143 72.9586 13.1169C72.3895 12.9909 71.8402 13.2924 71.2502 13.1135C71.0418 13.0507 71.0761 12.4706 70.8541 12.3416C70.6327 12.2126 70.2038 12.1134 70.0188 12.3979C69.8339 12.6826 70.1726 13.5621 69.8589 13.6715C68.4869 14.1481 67.0451 13.7746 65.629 13.8581C65.4187 13.8704 65.6292 14.1749 65.3217 14.2164C64.2031 14.369 62.2751 14.8979 61.2249 14.3198C60.3794 13.8573 61.316 13.3243 60.6922 13.1681C60.3912 13.094 60.1985 14.1837 60.1324 14.2249C59.4895 14.6399 58.9505 14.2286 58.3596 14.4413C58.2368 14.4855 58.4094 14.8984 58.3043 14.9313C57.9457 15.0474 57.5372 14.901 57.1887 14.9761C57.0324 15.0109 57.0989 15.3338 56.9503 15.3252C56.5953 15.3086 56.2707 15.2068 55.8945 14.94C55.8602 14.9157 56.0236 14.4859 55.7629 14.5004C55.341 14.5251 54.7954 14.2819 54.3513 14.6482C54.2199 14.7581 54.2996 15.5044 53.9349 15.0244C53.8584 14.9242 53.8382 14.0195 53.5698 14.8339C53.5247 14.9693 53.0439 16.0813 52.6716 15.4424C52.5736 15.2743 52.2901 14.5645 52.134 14.699C52.113 14.72 52.2512 15.1099 52.1146 15.1651C51.6324 15.3526 51.105 15.3696 50.6057 15.5537C50.4724 15.6036 50.7241 15.9947 50.5239 16.056C49.9749 16.2248 49.2523 16.2004 48.694 16.1328C48.4866 16.1072 48.5869 15.748 48.568 15.7123C48.2624 15.1316 48.2162 15.9678 48.1432 16.0246C47.6876 16.3667 47.271 16.0239 46.8307 16.1775C46.709 16.2188 46.8421 16.5998 46.8213 16.6375C46.6026 17.0077 46.7143 16.2834 46.5423 16.2246C46.0593 16.0577 45.5555 16.147 45.1024 16.2494C44.9358 16.2876 45.1773 16.7194 45.0271 16.7484C44.1401 16.9288 43.1955 16.9927 42.2898 16.8427C42.1198 16.8136 42.1835 16.4526 42.1401 16.3768C41.84 15.8457 41.5799 16.6464 41.5083 16.7281C41.1828 17.1005 41.0063 16.8078 40.6915 16.9021C39.1473 17.369 37.1977 17.3842 35.6939 17.4276C33.752 17.4843 32.2072 17.3238 30.3801 17.6194C30.2637 17.6378 30.4346 18.0889 30.3349 18.1107C29.0415 18.3716 27.744 18.3355 26.4523 18.6186C26.3463 18.641 26.551 19.0638 26.3825 19.1145C26.0376 19.2217 25.5851 19.249 25.2146 19.1487C25.0334 19.1007 25.2231 18.6963 25.0415 18.6558C24.6187 18.5604 24.1788 18.5787 23.7684 18.697C23.5938 18.7483 23.9138 19.1681 23.6829 19.1997C22.108 19.4243 20.5727 19.6778 18.9098 19.2763C18.7958 19.2487 18.5956 18.3442 18.3828 18.5463C18.3942 18.8023 18.4292 19.1011 18.4525 19.3735C16.1765 19.7808 13.8666 19.7224 11.5576 19.9355C11.4602 19.9446 11.6834 20.4106 11.4951 20.4306C10.4076 20.5472 9.3669 20.8018 8.19868 20.4464C8.08288 20.4118 8.04232 19.5521 7.7316 19.7182C7.67696 19.7483 7.20023 19.9178 7.09469 20.1175C7.08067 20.1474 7.21536 20.5355 7.05886 20.565C6.14863 20.7299 5.1766 20.7485 4.2327 20.6094C4.08037 20.5862 4.18946 20.1441 4.08054 20.1239C3.30831 19.9838 2.53273 20.3987 1.77525 20.0948C1.26805 19.8899 1.36144 19.1366 1.02545 18.4438C0.977962 18.346 0.680321 18.3636 0.617227 17.9454C0.457765 16.894 0.469436 15.7216 0.282534 14.6028C0.24252 14.3618 -0.12392 14.668 0.0439497 14.0555C0.055873 14.0144 0.320959 13.7873 0.369079 13.5805C0.402692 13.4375 0.265328 13.0206 0.345798 12.8333C0.426278 12.6462 0.577442 12.9915 0.720516 12.7659C0.863222 12.5378 0.734706 12.0603 1.06071 11.965ZM92.9178 8.29375C92.6049 7.91672 92.7388 9.41505 92.9848 9.02432C92.9965 9.00366 92.9338 8.31217 92.9178 8.29375ZM124.691 4.27704C124.263 3.66178 124.156 4.65776 124.457 5.1366C124.755 5.61525 124.823 4.46322 124.691 4.27704ZM128.195 3.35052C127.728 2.88228 127.931 5.00604 128.308 4.52399C128.33 4.49667 128.222 3.3777 128.195 3.35052ZM2.1792 18.1043C2.17332 18.0848 1.9585 18.0897 1.95565 18.1099C1.89645 18.5974 2.32597 18.5873 2.1792 18.1043ZM131.66 2.37737C131.499 2.10727 131.178 2.48424 131.38 2.81987C131.544 3.08978 131.861 2.71326 131.66 2.37737ZM79.0157 8.28393C79.0091 8.26214 78.8557 8.25947 78.8732 8.38497C78.9302 8.78908 79.1271 8.65051 79.0157 8.28393ZM137.655 1.57171C136.759 1.60837 135.992 -0.0676202 136.983 0.00283497C137.162 0.0155763 136.68 0.609179 136.923 0.737466C137.367 0.970989 137.493 -0.161102 137.986 0.371988C138.075 0.469673 137.707 1.5735 137.654 1.57435C137.654 1.57347 137.655 1.57259 137.655 1.57171ZM92.5567 6.51729C92.5492 6.49814 92.3333 6.5042 92.3303 6.52439C92.2696 7.01204 92.7046 7.0001 92.5567 6.51729ZM70.0181 8.38187C70.0019 8.34108 69.5101 8.35762 69.4984 8.39825C69.3331 9.20303 70.3279 9.17187 70.0181 8.38187ZM106.636 3.76414C106.806 3.26043 107.071 3.17225 107.33 3.74887C107.091 3.74487 106.866 3.7667 106.636 3.76414Z" fill="#FF9A9A"/>
</svg>
