<svg width="72" height="72" viewBox="0 0 72 72" fill="none" xmlns="http://www.w3.org/2000/svg">
<g clip-path="url(#clip0_487_13010)">
<path d="M58.5 38L13.5 39.5L16 49.5L23 56L33 60L42.5 59.5L49 56L55.5 49.5L58.5 38Z" fill="#FFE0E0" stroke="black"/>
<path d="M18.0009 53.9994C20.3206 56.4309 23.1156 58.3595 26.2121 59.6652C29.3086 60.9709 32.6406 61.6258 36.0009 61.5894C42.8121 61.3055 49.2818 58.5298 54.1809 53.7894C56.9138 51.1222 58.9708 47.8413 60.181 44.2194C61.0834 41.9231 61.3729 39.4315 61.021 36.9894C60.9351 36.626 60.7657 36.2876 60.5262 36.0011C60.2866 35.7147 59.9835 35.4881 59.6409 35.3394C58.5127 35.2514 57.3792 35.2514 56.2509 35.3394C51.451 35.3394 41.0709 35.9394 31.7409 36.4494C22.411 36.9594 13.1109 37.9494 13.1109 37.9494C12.8185 38.1668 12.5779 38.4464 12.4067 38.768C12.2355 39.0897 12.1379 39.4454 12.1209 39.8094C12.0597 41.6708 12.3655 43.5261 13.021 45.2694C14.029 48.5058 15.7282 51.4845 18.0009 53.9994ZM27.391 38.9994C37.351 38.7894 50.1009 38.6994 55.9509 38.6994H57.9309C57.7599 41.3432 57.0015 43.9156 55.7109 46.2294C54.734 48.1565 53.4468 49.9099 51.9009 51.4194C47.6221 55.6107 41.9788 58.1236 36.0009 58.4994C33.0005 58.6021 30.0106 58.091 27.2146 56.9973C24.4187 55.9037 21.8755 54.2506 19.7409 52.1394C18.0231 50.3231 16.6687 48.1948 15.7509 45.8694C15.0276 44.2687 14.5425 42.5707 14.3109 40.8294C14.2842 40.3598 14.2842 39.889 14.3109 39.4194C18.7001 39.0397 23.1066 38.8995 27.511 38.9994H27.391Z" fill="#10112A"/>
<path d="M71.6107 29.9985C71.2752 26.9279 70.5804 23.9072 69.5407 20.9985C67.5333 15.6148 64.0119 10.9265 59.4007 7.49854C54.8737 4.08826 49.5203 1.94484 43.8907 1.28854C43.6179 1.26208 43.3452 1.34034 43.1279 1.50746C42.9107 1.67458 42.7651 1.91806 42.7207 2.18854C42.6949 2.45792 42.7741 2.72686 42.9418 2.93926C43.1095 3.15165 43.3527 3.29111 43.6207 3.32854C48.8731 4.06153 53.8342 6.18477 57.9907 9.47854C62.1308 12.7093 65.2549 17.0622 66.9907 22.0185C67.9715 24.7246 68.6458 27.5322 69.0007 30.3885C69.2564 33.2528 69.2564 36.1342 69.0007 38.9985C68.7224 41.8204 68.077 44.5938 67.0807 47.2485C66.0658 49.9152 64.7578 52.4608 63.1807 54.8385C59.8342 59.6243 55.1174 63.2848 49.6507 65.3385C44.1881 67.5199 38.291 68.3932 32.4307 67.8885C29.189 67.6102 25.9999 66.8937 22.9507 65.7585C19.928 64.6424 17.1178 63.0191 14.6407 60.9585C8.41377 55.4349 4.38752 47.851 3.30069 39.5985C1.90854 31.3326 3.82689 22.8509 8.64069 15.9885C11.1797 12.4625 14.354 9.44089 18.0007 7.07854C21.6946 4.78022 25.8771 3.38262 30.2107 2.99854C32.3407 2.78854 34.4407 2.60854 36.5707 2.60854C37.9755 2.5938 39.3794 2.68405 40.7707 2.87854C40.8926 2.91023 41.0199 2.91597 41.1442 2.89539C41.2685 2.8748 41.387 2.82835 41.4923 2.75903C41.5975 2.68972 41.6869 2.59909 41.7549 2.493C41.8229 2.38692 41.8678 2.26775 41.8868 2.1432C41.9058 2.01865 41.8984 1.8915 41.8652 1.76998C41.832 1.64846 41.7736 1.53527 41.6938 1.43774C41.614 1.34021 41.5147 1.26051 41.4022 1.2038C41.2897 1.1471 41.1665 1.11464 41.0407 1.10854C39.5751 0.825523 38.0914 0.645085 36.6007 0.568538C34.3974 0.537277 32.1941 0.627414 30.0007 0.838538C25.349 1.25989 20.8549 2.73741 16.8607 5.15854C12.8905 7.59134 9.41058 10.7456 6.60069 14.4585C1.22025 21.8061 -1.03387 30.9844 0.330692 39.9885C1.39568 49.0507 5.71286 57.4186 12.4807 63.5385C15.2427 65.8811 18.3891 67.7283 21.7807 68.9985C25.1386 70.2479 28.6507 71.0351 32.2207 71.3385C38.6194 71.8485 45.0489 70.8625 51.0007 68.4585C57.061 66.0706 62.2438 61.8825 65.8507 56.4585C67.5347 53.8552 68.9138 51.0669 69.9607 48.1485C71.0072 45.2484 71.663 42.2218 71.9107 39.1485C72.0951 36.0958 71.9947 33.0326 71.6107 29.9985Z" fill="#10112A"/>
<path d="M12.9906 28.1386C13.4915 27.076 14.105 26.0702 14.8206 25.1386C15.4544 24.264 16.2611 23.5288 17.1906 22.9786C18.248 22.393 19.4322 22.0738 20.6406 22.0486C21.8877 21.974 23.138 22.1265 24.3306 22.4986C25.5893 22.8459 26.7671 23.438 27.7967 24.2411C28.8263 25.0441 29.6873 26.0424 30.3306 27.1786C30.4425 27.4254 30.6454 27.6195 30.897 27.7201C31.1486 27.8207 31.4294 27.8202 31.6806 27.7186C31.8054 27.6663 31.9186 27.5897 32.0135 27.4932C32.1084 27.3968 32.1831 27.2824 32.2334 27.1567C32.2836 27.0311 32.3084 26.8967 32.3062 26.7614C32.304 26.6261 32.2749 26.4926 32.2206 26.3686C31.6305 24.8007 30.724 23.371 29.5576 22.1685C28.3912 20.9659 26.9898 20.0163 25.4406 19.3786C23.8473 18.7158 22.1228 18.4283 20.4006 18.5386C18.6408 18.6765 16.951 19.2881 15.5106 20.3086C14.5742 21.0836 13.782 22.018 13.1706 23.0686C12.3392 24.4758 11.7034 25.9898 11.2806 27.5686C11.205 27.7954 11.2226 28.0429 11.3295 28.2567C11.4364 28.4705 11.6239 28.633 11.8506 28.7086C12.0774 28.7842 12.3249 28.7666 12.5387 28.6597C12.7525 28.5528 12.915 28.3654 12.9906 28.1386Z" fill="#AA336A"/>
<path d="M58.8314 22.6158C57.6597 21.0945 56.0458 19.9732 54.2114 19.4058C52.3295 18.8155 50.2994 18.9111 48.4814 19.6758C46.7373 20.3936 45.2405 21.6048 44.1748 23.1609C43.109 24.7169 42.5205 26.5502 42.4814 28.4358C42.4711 28.6715 42.5481 28.9028 42.6975 29.0854C42.8469 29.268 43.0583 29.3892 43.2914 29.4258C43.4097 29.4383 43.5293 29.4271 43.6432 29.393C43.7572 29.359 43.8633 29.3026 43.9553 29.2273C44.0474 29.152 44.1236 29.0592 44.1796 28.9542C44.2355 28.8493 44.2701 28.7342 44.2814 28.6158C44.5447 27.2668 45.1736 26.0162 46.0995 25.0004C47.0253 23.9846 48.2125 23.2427 49.5314 22.8558C50.7201 22.4507 51.9989 22.3883 53.2214 22.6758C54.5112 22.951 55.6968 23.5854 56.6414 24.5058C57.1637 25.0093 57.5817 25.6107 57.8714 26.2758C58.1877 27.0303 58.4288 27.8141 58.5914 28.6158C58.606 28.7491 58.6475 28.8781 58.7134 28.9949C58.7793 29.1117 58.8683 29.2138 58.9749 29.2952C59.0815 29.3765 59.2035 29.4354 59.3336 29.4682C59.4636 29.5009 59.5989 29.5069 59.7314 29.4858C59.8659 29.4675 59.9955 29.4225 60.1124 29.3535C60.2294 29.2844 60.3314 29.1928 60.4124 29.0838C60.4934 28.9748 60.5519 28.8507 60.5843 28.7189C60.6168 28.587 60.6226 28.45 60.6014 28.3158C60.5546 27.1542 60.3528 26.004 60.0014 24.8958C59.7423 24.0754 59.3468 23.3046 58.8314 22.6158Z" fill="#AA336A"/>
</g>
<defs>
<clipPath id="clip0_487_13010">
<rect width="72" height="72" fill="white"/>
</clipPath>
</defs>
</svg>
