<svg width="72" height="72" viewBox="0 0 72 72" fill="none" xmlns="http://www.w3.org/2000/svg">
<g clip-path="url(#clip0_487_12970)">
<ellipse cx="20.25" cy="40.5" rx="12" ry="10.5" fill="#FFE0E0"/>
<path d="M59.9985 10.5898C59.3385 10.5898 54.7785 10.0498 51.2985 9.83984H47.3985L37.0785 10.9198C36.9614 10.9273 36.847 10.9583 36.7422 11.0111C36.6374 11.0639 36.5444 11.1374 36.4687 11.2271C36.3931 11.3167 36.3363 11.4208 36.3019 11.533C36.2675 11.6452 36.2561 11.7632 36.2685 11.8798C36.276 11.9969 36.307 12.1113 36.3598 12.2161C36.4126 12.3209 36.4861 12.414 36.5757 12.4896C36.6654 12.5653 36.7695 12.622 36.8817 12.6565C36.9939 12.6909 37.1118 12.7022 37.2285 12.6898C39.5385 12.6898 41.6985 13.1398 45.4785 13.2598H47.5785H51.2385C54.8085 13.2598 59.4885 12.8398 60.2385 12.7198C60.3702 12.7127 60.4991 12.6784 60.617 12.6192C60.7348 12.56 60.8393 12.4772 60.9237 12.3758C61.0082 12.2745 61.0708 12.1569 61.1078 12.0302C61.1447 11.9036 61.1552 11.7707 61.1385 11.6398C61.1439 11.4927 61.1173 11.3461 61.0606 11.2102C61.004 11.0742 60.9185 10.9522 60.8102 10.8524C60.7019 10.7527 60.5733 10.6775 60.4331 10.6322C60.293 10.5869 60.1448 10.5724 59.9985 10.5898Z" fill="#AA336A"/>
<path d="M51.4184 21.6328H47.5484L37.4684 22.5628C37.2297 22.5628 37.0007 22.6576 36.832 22.8264C36.6632 22.9952 36.5684 23.2241 36.5684 23.4628C36.5684 23.7015 36.6632 23.9304 36.832 24.0992C37.0007 24.268 37.2297 24.3628 37.4684 24.3628C39.3884 24.6028 41.4884 24.7528 43.4684 24.8428L47.4584 24.9928H51.3884C54.3884 24.8128 57.7484 24.3928 60.3884 24.1828C60.5349 24.2082 60.6852 24.2013 60.8287 24.1625C60.9723 24.1237 61.1056 24.054 61.2194 23.9583C61.3332 23.8625 61.4246 23.743 61.4874 23.6082C61.5501 23.4734 61.5826 23.3265 61.5826 23.1778C61.5826 23.0291 61.5501 22.8822 61.4874 22.7474C61.4246 22.6126 61.3332 22.4931 61.2194 22.3974C61.1056 22.3016 60.9723 22.2319 60.8287 22.1931C60.6852 22.1543 60.5349 22.1474 60.3884 22.1728C57.8084 21.9328 54.5684 21.6928 51.4184 21.6328Z" fill="#AA336A"/>
<path d="M70.9489 15.57V4.26C70.9344 3.39452 70.6278 2.55936 70.0789 1.89C68.1841 1.10013 66.1609 0.662955 64.1089 0.6C60.4789 0.24 55.6489 0 52.1089 0C50.9989 0 39.3589 0 32.6089 0.51C30.6777 0.50315 28.7665 0.901743 26.9989 1.68C26.7299 1.92892 26.5417 2.25291 26.4589 2.61C26.1803 3.87163 26.0296 5.15813 26.0089 6.45C25.7089 11.67 25.7989 20.43 25.8289 22.5C25.8316 22.645 25.8652 22.7878 25.9275 22.9188C25.9897 23.0498 26.0792 23.1661 26.1899 23.2598C26.3006 23.3535 26.4301 23.4225 26.5696 23.4622C26.7091 23.5019 26.8555 23.5114 26.9989 23.49C27.2643 23.4901 27.5193 23.3868 27.7098 23.2019C27.9002 23.0171 28.0111 22.7653 28.0189 22.5C28.0189 20.91 28.0189 15.39 28.2889 10.5C28.2889 7.98 28.5589 5.7 28.7689 4.26C28.8138 3.96707 28.8739 3.67667 28.9489 3.39H29.9989C31.7389 3 34.5889 3 37.6189 3H52.1689C55.0189 3 58.8589 3.33 62.0989 3.63C64.1989 3.84 67.3489 4.35 67.4089 4.38C67.4689 4.41 67.5589 13.02 67.4089 15.45C67.4089 16.92 67.6489 22.14 67.6489 26.67C67.6489 28.98 67.4089 33.21 67.3789 33.3C66.6699 33.2475 65.958 33.2475 65.2489 33.3H62.0689C59.0689 33.15 55.6189 32.85 54.0589 32.94C53.4057 32.9222 52.771 33.1588 52.2889 33.6C51.5689 34.44 50.8189 36.39 49.5289 38.55C48.9401 39.5076 48.2674 40.4112 47.5189 41.25C46.9171 41.9089 46.1851 42.4357 45.3692 42.7972C44.5533 43.1587 43.6713 43.3469 42.7789 43.35C42.5389 41.7 42.7789 37.35 42.7789 35.28C42.7864 34.8577 42.7046 34.4385 42.5389 34.05C42.4776 33.8929 42.376 33.7548 42.2444 33.6495C42.1127 33.5441 41.9556 33.4753 41.7889 33.45C41.15 33.3987 40.5079 33.3987 39.8689 33.45C39.2195 33.4125 38.5684 33.4125 37.9189 33.45C37.802 33.4639 37.6894 33.5022 37.5882 33.5625C37.4871 33.6227 37.3998 33.7035 37.3319 33.7997C37.264 33.8959 37.2171 34.0053 37.1942 34.1207C37.1713 34.2362 37.1729 34.3552 37.1989 34.47C37.2137 34.5847 37.2511 34.6953 37.309 34.7954C37.367 34.8955 37.4443 34.983 37.5365 35.0528C37.6287 35.1226 37.7339 35.1734 37.8459 35.2021C37.9579 35.2308 38.0745 35.2369 38.1889 35.22C38.7479 35.1709 39.31 35.1709 39.8689 35.22H40.8589C40.6879 38.3176 40.6879 41.4224 40.8589 44.52C40.9498 44.7166 41.0876 44.8879 41.2602 45.0187C41.4329 45.1495 41.6351 45.2358 41.8489 45.27C42.8364 45.494 43.8615 45.494 44.8489 45.27C46.4665 44.87 47.9413 44.0287 49.1089 42.84C50.0296 41.9349 50.8448 40.9285 51.5389 39.84C52.6489 38.13 53.3089 36.51 53.9389 35.64C55.4389 35.64 58.6489 35.97 61.5889 36.24C63.2367 36.3606 64.8912 36.3606 66.5389 36.24C67.6215 36.2251 68.6716 35.8681 69.5389 35.22C70.3118 33.7936 70.7044 32.1922 70.6789 30.57C71.2789 25.71 70.9189 17.49 70.9489 15.57Z" fill="#10112A"/>
<path d="M35.9991 59.4326C34.5058 56.9831 32.4486 54.9259 29.9991 53.4326C28.8219 52.7965 27.5731 52.303 26.2791 51.9626C29.1481 50.1014 31.4108 47.4424 32.7891 44.3126C33.6187 42.7403 34.0821 41.0006 34.1444 39.2239C34.2068 37.4471 33.8665 35.6793 33.1491 34.0526C31.5891 31.0526 18.7491 22.3826 9.56906 34.0526C5.42906 39.3326 4.52906 46.6826 10.5891 51.0626C11.8042 51.9115 13.1255 52.5974 14.5191 53.1026C10.6033 54.9984 7.26744 57.9095 4.85906 61.5326C4.12492 62.7017 3.50219 63.9371 2.99906 65.2226C2.19876 67.0504 1.5369 68.9357 1.01906 70.8626C0.97587 70.9708 0.954838 71.0865 0.957212 71.203C0.959586 71.3194 0.985317 71.4342 1.03288 71.5405C1.08044 71.6468 1.14887 71.7425 1.2341 71.8219C1.31933 71.9013 1.41963 71.9627 1.52906 72.0026C1.7558 72.0681 1.99919 72.0419 2.20681 71.9297C2.41443 71.8175 2.56966 71.6282 2.63906 71.4026C3.17296 69.912 3.78377 68.45 4.46906 67.0226C5.1328 65.5995 5.94747 64.2518 6.89906 63.0026C9.49379 59.6926 12.9654 57.1772 16.9191 55.7426C19.9062 54.5542 23.2089 54.4177 26.2839 55.3554C29.359 56.2932 32.0234 58.2495 33.8391 60.9026C36.0372 63.9688 37.7194 67.3737 38.8191 70.9826C38.8396 71.1261 38.8905 71.2635 38.9684 71.3857C39.0462 71.508 39.1492 71.6122 39.2705 71.6915C39.3918 71.7708 39.5286 71.8234 39.6718 71.8457C39.815 71.868 39.9613 71.8595 40.1009 71.8208C40.2406 71.7821 40.3704 71.7141 40.4818 71.6214C40.5931 71.5286 40.6833 71.4132 40.7466 71.2828C40.8098 71.1524 40.8445 71.01 40.8484 70.8651C40.8522 70.7202 40.8252 70.5762 40.7691 70.4426C39.763 66.5463 38.1535 62.8314 35.9991 59.4326ZM11.6991 35.7626C19.4091 24.8726 30.3591 34.1126 30.7491 35.7626C31.162 36.9973 31.3243 38.3019 31.2264 39.6001C31.1285 40.8983 30.7725 42.1639 30.1791 43.3226C28.6139 46.6118 25.8092 49.1468 22.3791 50.3726C20.6986 50.8604 18.927 50.9462 17.2073 50.6231C15.4875 50.3 13.8679 49.5771 12.4791 48.5126C7.91906 45.3026 8.99906 39.8126 11.7891 35.7626H11.6991Z" fill="#10112A"/>
</g>
<defs>
<clipPath id="clip0_487_12970">
<rect width="72" height="72" fill="white"/>
</clipPath>
</defs>
</svg>
