<svg width="72" height="72" viewBox="0 0 72 72" fill="none" xmlns="http://www.w3.org/2000/svg">
<rect x="3" y="21" width="20" height="19" rx="8.44444" fill="#FFE0E0"/>
<rect x="49" y="21" width="20" height="19" rx="8.44444" fill="#FFE0E0"/>
<path fill-rule="evenodd" clip-rule="evenodd" d="M22.0302 42.7525C22.816 42.8544 23.6117 42.8544 24.3974 42.7525C25.1636 42.64 25.9172 42.4541 26.6478 42.1972C28.2848 41.5735 29.852 40.7801 31.3238 39.83C31.5443 39.717 31.7129 39.5234 31.7945 39.2894C31.8761 39.0554 31.8645 38.799 31.7621 38.5733C31.644 38.3578 31.4502 38.1936 31.2181 38.1127C30.9859 38.0317 30.7321 38.0396 30.5055 38.135C28.9535 38.6798 27.3606 39.1 25.7418 39.3916C24.7761 39.5896 23.8006 39.736 22.8193 39.83H21.358C23.0635 37.5956 24.0884 34.9168 24.3098 32.1146C24.8943 26.2696 22.001 20.4246 15.2208 19.8401C13.0418 19.8272 10.8909 20.3318 8.94495 21.3124C6.99902 22.293 5.3137 23.7215 4.0276 25.4805C2.59107 27.1663 1.73344 29.2685 1.58088 31.4781C1.42831 33.6876 1.98886 35.8878 3.18007 37.755C3.93522 38.8789 4.93419 39.8179 6.10258 40.5022L7.21313 41.0867C4.97135 43.3787 3.27341 46.1454 2.24487 49.182C1.47702 51.5364 1.03455 53.9848 0.929746 56.459C0.799236 60.0682 1.03423 63.6813 1.63115 67.2431C1.63817 67.3752 1.6723 67.5045 1.73143 67.6229C1.79056 67.7412 1.87341 67.8462 1.97484 67.9312C2.07627 68.0161 2.1941 68.0793 2.321 68.1168C2.4479 68.1543 2.58115 68.1653 2.71247 68.1491C2.95016 68.1197 3.16753 68.0003 3.31978 67.8154C3.47203 67.6305 3.54755 67.3943 3.53077 67.1554C3.35037 63.665 3.4579 60.1656 3.85225 56.6928C4.10719 54.4682 4.54709 52.2687 5.16738 50.1172C5.98504 47.1167 7.38522 44.3064 9.2881 41.8465C10.0772 42.0511 10.8663 42.2557 11.6553 42.4018C11.8685 42.4444 12.0898 42.4006 12.2707 42.2801C12.4516 42.1595 12.5771 41.972 12.6198 41.7589C12.6624 41.5457 12.6186 41.3243 12.498 41.1435C12.3774 40.9626 12.19 40.8371 11.9768 40.7944C6.1318 39.4501 5.0797 36.7322 5.05048 36.6445C4.21969 35.1495 3.89325 33.4263 4.11965 31.731C4.34604 30.0357 5.11318 28.4587 6.30715 27.234C7.32788 25.8749 8.6523 24.7733 10.1746 24.0172C11.6969 23.2611 13.3749 22.8715 15.0747 22.8795C20.0721 23.1717 22.0594 27.5263 21.7964 31.8516C21.826 34.1136 21.1048 36.3216 19.7458 38.1301C18.3868 39.9387 16.4665 41.2456 14.2856 41.8465C14.0453 41.8895 13.8303 42.022 13.6839 42.2172C13.5375 42.4125 13.4705 42.656 13.4965 42.8986C13.5395 43.1368 13.6731 43.3491 13.8693 43.4908C14.0655 43.6325 14.309 43.6926 14.5486 43.6585C16.1297 43.4314 17.6277 42.8081 18.9031 41.8465C19.8932 42.3063 20.9477 42.6118 22.0302 42.7525Z" fill="#10112A"/>
<path fill-rule="evenodd" clip-rule="evenodd" d="M31.8215 43.8911C30.6285 45.0201 29.3038 46.0013 27.8761 46.8136C26.4634 47.5952 24.975 48.2316 23.4339 48.7132C22.2481 49.0051 21.0776 49.3562 19.9269 49.7653C19.1119 50.0654 18.422 50.6317 17.9689 51.3727C17.3106 52.9828 17.0307 54.7225 17.1506 56.4578C17.1506 60.111 18.3488 64.6116 18.5241 66.9204C18.5278 67.042 18.5559 67.1616 18.6068 67.272C18.6577 67.3825 18.7303 67.4816 18.8203 67.5634C18.9103 67.6453 19.0158 67.7081 19.1306 67.7483C19.2455 67.7884 19.3672 67.805 19.4886 67.7971C19.6076 67.7934 19.7246 67.7662 19.8331 67.7171C19.9416 67.6681 20.0393 67.5981 20.1208 67.5112C20.2022 67.4244 20.2657 67.3223 20.3077 67.2109C20.3496 67.0995 20.3692 66.9809 20.3653 66.8619C20.3653 64.8746 20.0438 61.2215 20.0438 57.8606C20.0438 50.2913 21.8266 52.4248 24.5153 51.3727C26.1215 50.6144 27.657 49.7146 29.1036 48.684C30.576 47.6373 31.9113 46.41 33.0782 45.0308C33.1598 44.9569 33.2249 44.8667 33.2695 44.766C33.3141 44.6653 33.3372 44.5564 33.3372 44.4463C33.3372 44.3362 33.3141 44.2274 33.2695 44.1267C33.2249 44.026 33.1598 43.9358 33.0782 43.8618C32.9993 43.7715 32.9015 43.6997 32.7917 43.6514C32.682 43.6031 32.5629 43.5795 32.443 43.5823C32.3231 43.585 32.2053 43.6141 32.0979 43.6675C31.9905 43.7209 31.8962 43.7972 31.8215 43.8911Z" fill="#10112A"/>
<path fill-rule="evenodd" clip-rule="evenodd" d="M61.2508 39.3052C59.8616 39.4514 58.4609 39.4514 57.0717 39.3052C52.9217 38.7207 47.2813 35.0968 49.2686 29.1641C49.9386 27.4316 51.0118 25.8837 52.3993 24.6487C53.7867 23.4137 55.4486 22.5271 57.247 22.0624C59.1458 21.4871 61.1804 21.5468 63.0422 22.2324C64.904 22.918 66.4913 24.1922 67.5634 25.8617C68.0959 26.7156 68.4534 27.6668 68.6153 28.66C68.7771 29.6533 68.7401 30.6688 68.5062 31.6476C68.2724 32.6264 67.8465 33.549 67.2532 34.3618C66.6599 35.1747 65.911 35.8616 65.0501 36.3827C64.8509 36.524 64.715 36.7377 64.6713 36.978C64.6276 37.2183 64.6796 37.4661 64.8163 37.6686C64.8808 37.7737 64.9667 37.8641 65.0685 37.9338C65.1702 38.0035 65.2856 38.0509 65.407 38.073C65.5283 38.0951 65.653 38.0913 65.7728 38.0619C65.8926 38.0325 66.0048 37.9781 66.1022 37.9024C67.2238 37.2738 68.2093 36.4286 69.0014 35.4159C69.7935 34.4032 70.3765 33.2432 70.7164 32.0032C71.0563 30.7632 71.1464 29.4681 70.9814 28.193C70.8164 26.9179 70.3996 25.6884 69.7553 24.5758C68.4525 22.3209 66.4473 20.5546 64.0462 19.5466C61.645 18.5386 58.9798 18.3445 56.4579 18.9938C54.1686 19.5919 52.0618 20.7447 50.3237 22.3503C48.5856 23.9559 47.2697 25.9648 46.4922 28.1997C46.0039 29.6942 45.917 31.2909 46.2402 32.8297C46.5633 34.3684 47.2852 35.7952 48.3334 36.9672C47.851 36.7981 47.3821 36.593 46.9306 36.3534C45.404 35.3373 44.1497 33.9626 43.2774 32.3496C42.5617 31.0614 41.6552 29.8889 40.5887 28.8718C39.7325 28.0121 38.6718 27.384 37.5063 27.0466C36.3407 26.7092 35.1085 26.6735 33.9254 26.943C32.9559 27.3528 32.1037 27.9975 31.4455 28.8189C30.7873 29.6403 30.344 30.6127 30.1554 31.6482C29.9821 32.3092 29.9821 33.0037 30.1554 33.6647C30.4638 34.4719 30.815 35.2621 31.2075 36.032C31.6004 36.789 32.0396 37.521 32.5226 38.2238C33.7236 40.0674 35.136 41.7642 36.731 43.2798C38.3432 44.8 40.1518 46.0975 42.1084 47.1375C43.6746 47.7962 45.2745 48.3718 46.9013 48.8617C47.3873 49.036 47.8489 49.2717 48.2749 49.5631C48.577 50.6423 48.7727 51.7483 48.8594 52.8656C49.0782 54.6101 49.1661 56.3685 49.1224 58.1261C49.057 60.8149 48.8424 63.498 48.4795 66.163C48.4446 66.38 48.4974 66.602 48.6262 66.7801C48.755 66.9582 48.9493 67.0779 49.1663 67.1128C49.3833 67.1477 49.6053 67.0949 49.7834 66.9661C49.9616 66.8373 50.0812 66.643 50.1161 66.426C50.5545 63.7373 50.9928 60.9901 51.1682 58.243C51.2995 56.3846 51.2995 54.5193 51.1682 52.661C51.1338 51.4562 51.0166 50.2551 50.8175 49.0663C50.6942 48.5477 50.4315 48.0727 50.0576 47.6927C49.415 47.1442 48.6964 46.6914 47.9242 46.3484C46.463 45.6762 44.7387 45.2378 43.482 44.5364C41.7838 43.5661 40.213 42.388 38.806 41.0294C37.4014 39.6596 36.1384 38.1518 35.036 36.5288C34.6268 35.8858 34.2469 35.2429 33.8962 34.5707C32.6688 32.3496 32.961 32.4665 33.1364 31.8528C33.2111 31.3898 33.3962 30.9516 33.6759 30.5752C33.9557 30.1987 34.3219 29.8952 34.7437 29.6901C35.7374 29.3102 37.0525 29.6901 38.9229 31.0053C40.7933 32.3204 42.1377 36.3242 45.7908 38.2531C47.5166 39.1309 49.4379 39.5534 51.3728 39.4805C51.6549 39.6633 51.9477 39.8292 52.2495 39.9773C53.688 40.6291 55.2326 41.0153 56.8086 41.1171C58.3217 41.1942 59.8386 41.1257 61.3385 40.9125C61.4452 40.9019 61.5486 40.8696 61.6424 40.8177C61.7362 40.7657 61.8184 40.6952 61.8841 40.6104C61.9497 40.5256 61.9974 40.4284 62.0242 40.3245C62.051 40.2207 62.0563 40.1125 62.0399 40.0066C62.0249 39.8102 61.9343 39.6273 61.7871 39.4964C61.6399 39.3656 61.4476 39.297 61.2508 39.3052Z" fill="#10112A"/>
<path fill-rule="evenodd" clip-rule="evenodd" d="M63.8819 38.1069C63.8081 38.0137 63.7147 37.9377 63.6085 37.8842C63.5023 37.8308 63.3857 37.8011 63.2668 37.7973C63.1479 37.7935 63.0297 37.8157 62.9202 37.8622C62.8108 37.9088 62.7128 37.9787 62.6332 38.0669C62.5535 38.1552 62.494 38.2598 62.4589 38.3735C62.4238 38.4871 62.4138 38.607 62.4297 38.7248C62.4457 38.8427 62.4871 38.9557 62.5512 39.0559C62.6152 39.1561 62.7003 39.2411 62.8006 39.3051C65.2298 42.0542 66.7595 45.4808 67.1844 49.1247C67.5652 51.3082 67.7996 53.5147 67.8858 55.7295C67.9942 59.1608 67.9064 62.5955 67.6227 66.0168C67.6064 66.1359 67.6139 66.2571 67.6448 66.3733C67.6757 66.4895 67.7295 66.5983 67.8029 66.6935C67.8764 66.7887 67.968 66.8684 68.0726 66.9278C68.1771 66.9872 68.2924 67.0252 68.4118 67.0396C68.6514 67.0737 68.8949 67.0136 69.0911 66.8719C69.2873 66.7302 69.4209 66.518 69.4639 66.2798C70.2136 62.8072 70.6731 59.2783 70.8375 55.7295C70.9338 53.2961 70.7177 50.8603 70.1945 48.4817C69.3221 44.4099 67.0972 40.7532 63.8819 38.1069Z" fill="#10112A"/>
<path fill-rule="evenodd" clip-rule="evenodd" d="M21.7979 14.5214C21.9396 15.0145 22.1255 15.4937 22.3532 15.9534C22.5579 16.4067 22.7922 16.846 23.0546 17.2686C23.7272 18.2924 24.4693 19.2689 25.2757 20.1911C25.3857 20.3753 25.5616 20.5109 25.7677 20.5706C25.9738 20.6302 26.1948 20.6095 26.3863 20.5125C26.576 20.4077 26.7164 20.232 26.7767 20.0237C26.837 19.8155 26.8122 19.5919 26.7077 19.402C26.3278 18.2622 26.1232 17.1517 25.7433 16.0411C25.5787 15.571 25.3835 15.1121 25.1588 14.6675C24.954 14.2237 24.7196 13.7941 24.4574 13.3816C23.8437 12.3588 23.1715 11.3943 22.4993 10.4591C22.3906 10.2411 22.201 10.0741 21.971 9.99376C21.741 9.91338 21.4887 9.92594 21.2678 10.0288C21.0469 10.1316 20.8749 10.3166 20.7883 10.5443C20.7017 10.7721 20.7075 11.0246 20.8043 11.2482C21.155 12.3003 21.3888 13.4109 21.7979 14.5214Z" fill="#AA336A"/>
<path fill-rule="evenodd" clip-rule="evenodd" d="M35.0358 15.2229C35.0357 15.4349 35.1179 15.6388 35.2651 15.7914C35.4122 15.9441 35.613 16.0336 35.8249 16.0412C35.9333 16.0492 36.0422 16.0348 36.1448 15.9988C36.2474 15.9627 36.3414 15.9059 36.421 15.8318C36.5006 15.7577 36.564 15.668 36.6073 15.5682C36.6505 15.4685 36.6727 15.3608 36.6724 15.2521C36.9354 14.0247 37.2569 12.8849 37.403 11.6282C37.4329 11.1123 37.4329 10.5952 37.403 10.0793C37.4313 9.56336 37.4313 9.04627 37.403 8.53035C37.403 7.33212 37.0523 6.16312 36.877 4.93567C36.8774 4.69744 36.787 4.46802 36.624 4.29422C36.4611 4.12043 36.238 4.01536 36.0002 4.00047C35.8788 3.99655 35.7579 4.01709 35.6445 4.06086C35.5312 4.10463 35.4279 4.17075 35.3406 4.25527C35.2534 4.33979 35.184 4.44099 35.1367 4.55286C35.0893 4.66473 35.065 4.78497 35.065 4.90645C34.8605 6.1339 34.6266 7.3029 34.5097 8.53035C34.4808 9.04625 34.4808 9.56337 34.5097 10.0793C34.4811 10.5952 34.4811 11.1123 34.5097 11.6282C34.5682 12.8557 34.8605 13.9954 35.0358 15.2229Z" fill="#AA336A"/>
<path fill-rule="evenodd" clip-rule="evenodd" d="M45.6743 19.255C46.5346 18.6369 47.3456 17.9529 48.1 17.2093C48.3951 16.8838 48.6593 16.5316 48.8891 16.1572C49.1229 15.8065 49.3275 15.4265 49.532 15.0466C49.9704 14.1114 50.3211 13.2054 50.7303 12.2994C50.8817 12.1065 50.9539 11.8631 50.9322 11.6187C50.9104 11.3744 50.7964 11.1476 50.6134 10.9843C50.4109 10.8477 50.1631 10.7956 49.9228 10.8393C49.6825 10.883 49.4688 11.019 49.3275 11.2181C48.5676 11.9487 47.8662 12.6209 47.1648 13.41C46.9018 13.7315 46.6388 14.053 46.405 14.4037C46.1208 14.7621 45.8667 15.1433 45.6451 15.5434C45.2067 16.4494 44.9145 17.3554 44.4469 18.2321C44.3719 18.3121 44.3138 18.4063 44.276 18.5091C44.2381 18.612 44.2213 18.7214 44.2265 18.8308C44.2317 18.9403 44.2589 19.0476 44.3064 19.1464C44.3539 19.2451 44.4207 19.3334 44.503 19.4058C44.5852 19.4782 44.6811 19.5334 44.7851 19.5681C44.8891 19.6027 44.9989 19.6162 45.1082 19.6076C45.2175 19.5989 45.3239 19.5685 45.4211 19.518C45.5184 19.4674 45.6045 19.3979 45.6743 19.3135V19.255Z" fill="#AA336A"/>
</svg>
