<svg width="33" height="32" viewBox="0 0 33 32" fill="none" xmlns="http://www.w3.org/2000/svg">
<g clip-path="url(#clip0_487_13081)">
<path d="M30.8417 3.35114C29.3979 1.50172 27.234 0.317348 24.7469 0.0177856L24.6453 0.00390625L8.66563 0.0120025L8.54445 0.0281951C8.22361 0.0744596 7.90969 0.133447 7.60501 0.205157C7.71003 0.186651 7.81736 0.169302 7.92585 0.154266L23.5847 0.148483H23.587C25.8283 0.41566 20.711 -0.511943 21.8235 1.07493L12.6496 3.08165C5.82423 3.08281 0.239529 8.67966 0.239529 15.521C0.239529 15.6563 0.242991 15.7917 0.249916 15.9247C0.184132 15.0352 0.293772 13.763 0.485353 12.397C0.0629512 14.982 -0.0790033 16.8014 0.0410233 17.9892C0.43688 21.9078 3.95805 25.2701 7.89007 25.4829L7.94201 25.4864H7.9951C8.09204 25.4864 8.18783 25.4841 8.28593 25.4841H9.7551C10.5203 25.4841 11.2843 25.4841 12.0506 25.4841L14.8239 25.4818C15.7887 25.4818 16.7536 25.4818 17.7161 25.4806L23.3112 25.4783C23.3112 25.4783 23.3574 25.4795 23.3666 25.4795C23.8755 25.8623 24.388 26.3758 24.8277 26.8257C25.0204 27.0235 25.2085 27.2225 25.3978 27.4237C25.4982 27.5301 25.5986 27.6354 25.7013 27.7441C25.7637 27.8089 25.826 27.8783 25.8883 27.9488C25.9298 27.9951 25.9702 28.0413 26.0141 28.0876C26.0949 28.1767 26.178 28.268 26.2634 28.3548L26.8173 28.94L28.8751 31.1087L29.1798 31.4233L29.2086 31.3608L29.1983 31.4418L29.7407 32.0027L30.2289 28.4462L30.2404 28.3756L30.342 27.6793L30.3524 27.6099L31.4995 19.0973C31.9427 16.2127 32.4424 12.9452 32.6998 10.1058C32.9295 7.5774 32.2693 5.17975 30.8417 3.35114ZM27.6195 25.3707C27.6195 25.3707 27.9276 23.5491 27.9264 23.5548C27.9091 23.6474 27.504 23.0841 27.489 23.1847C27.4867 23.1998 26.9178 23.2414 26.9178 23.2414L26.5704 23.0957C26.4942 23.0205 25.9818 23.3976 25.9091 23.3201C25.7879 23.1917 25.6332 23.3814 25.5167 23.2634C25.2189 22.9615 25.8306 23.6115 25.4682 23.8961H27.8214C27.7545 24.3876 27.6864 24.878 27.6195 25.3684C27.6195 25.3684 27.6194 25.3696 27.6183 25.3707H27.6195Z" fill="#FF9A9A"/>
<path d="M29.1797 31.4179L29.2085 31.3555L29.1982 31.4364L29.1797 31.4179Z" fill="#FF9A9A"/>
<path d="M29.9716 8.0292C29.7258 10.7056 29.2584 13.7452 28.7887 16.772L28.3005 20.3494C28.0743 22.0115 27.8469 23.6735 27.6207 25.3368C27.6207 25.3368 27.6207 25.3379 27.6196 25.3391C27.6196 25.3449 27.6195 25.3495 27.6172 25.3553C27.5999 25.4478 27.5422 25.8491 27.5272 25.9498C27.5249 25.9648 27.5238 25.9729 27.5238 25.9729L26.9398 25.3761C26.8636 25.3009 26.7886 25.2211 26.7159 25.1436C26.5947 25.0141 26.4781 24.8834 26.3616 24.7654C26.0557 24.4543 25.7545 24.1408 25.4452 23.8332C24.9051 23.2976 24.3281 22.7436 23.7118 22.296C23.3805 22.0554 23.0551 21.9733 22.6546 21.9768H21.7094C21.0054 21.9768 20.3014 21.978 19.5985 21.978C18.6845 21.978 17.7704 21.978 16.8564 21.978C15.8581 21.9791 14.8586 21.9791 13.8603 21.9791C12.9013 21.9791 11.9434 21.9791 10.9843 21.9814C10.1915 21.9814 9.39859 21.9814 8.60572 21.9826H7.10077C6.98882 21.9826 6.87803 21.9826 6.76608 21.9837C3.65116 21.8195 0.592785 19.1604 0.263866 16.0075C0.170384 15.11 0.282332 13.7602 0.485454 12.304C0.485454 12.2959 0.487762 12.2879 0.488916 12.2798C0.807448 10.007 1.34641 7.4775 1.67072 5.99588C1.98232 4.5744 2.52937 3.37037 3.32339 2.41616C4.4521 1.26302 5.89011 0.463802 7.59472 0.0589872C7.59819 0.0589872 7.60165 0.0589872 7.60511 0.056674C7.71013 0.0381682 7.81747 0.020819 7.92595 0.00578306L23.5848 0H23.5871C27.7673 0.500813 30.3559 3.83648 29.9716 8.0292Z" fill="#FF9A9A"/>
<path d="M29.1797 31.4173L29.2085 31.3549L29.1981 31.4358V31.437L29.197 31.4428L29.1774 31.4219L28.875 31.1016L29.1797 31.4173Z" fill="#FF9A9A"/>
<path d="M29.9716 8.0292C29.7258 10.7056 29.2584 13.7452 28.7887 16.772L28.3005 20.3494C28.0743 22.0115 27.8469 23.6735 27.6207 25.3368C27.6207 25.3368 27.6207 25.3379 27.6196 25.3391C27.6196 25.3449 27.6195 25.3495 27.6172 25.3553C27.5999 25.4478 27.5422 25.8491 27.5272 25.9498C27.5249 25.9648 27.5238 25.9729 27.5238 25.9729L26.9398 25.3761C26.8636 25.3009 26.7886 25.2211 26.7159 25.1436C26.5947 25.0141 26.4781 24.8834 26.3616 24.7654C26.0557 24.4543 25.7545 24.1408 25.4452 23.8332C24.9051 23.2976 24.3281 22.7436 23.7118 22.296C23.3805 22.0554 23.0551 21.9733 22.6546 21.9768H21.7094C21.0054 21.9768 20.3014 21.978 19.5985 21.978C18.6845 21.978 17.7704 21.978 16.8564 21.978C15.8581 21.9791 14.8586 21.9791 13.8603 21.9791C12.9013 21.9791 11.9434 21.9791 10.9843 21.9814C10.1915 21.9814 9.39859 21.9814 8.60572 21.9826H7.10077C6.98882 21.9826 6.87803 21.9826 6.76608 21.9837C3.65116 21.8195 0.592785 19.1604 0.263866 16.0075C0.170384 15.11 0.282332 13.7602 0.485454 12.304C0.485454 12.2959 0.487762 12.2879 0.488916 12.2798C0.719736 10.8722 1.03134 9.23902 1.42836 7.35953C2.30663 3.20613 4.94606 0.601439 8.86193 0.0231322L8.97849 0.00693967L23.5848 0H23.5871C27.7673 0.500813 30.3559 3.83648 29.9716 8.0292Z" fill="#FF9A9A"/>
<path d="M23.5635 0.37207C27.5234 0.856375 29.9666 4.00186 29.6006 7.99512C29.356 10.6578 28.891 13.6855 28.4209 16.7148L28.4199 16.7217L27.9316 20.2988C27.7111 21.9189 27.4892 23.5415 27.2686 25.1631L27.2598 25.1719L27.2061 25.1162L27.2012 25.1113L26.9873 24.8887H26.9863L26.626 24.5039C26.3246 24.1973 26.0187 23.8784 25.708 23.5693H25.707C25.1667 23.0336 24.5722 22.4611 23.9307 21.9951C23.5248 21.7003 23.1184 21.6009 22.6543 21.6045H21.709C21.357 21.6045 21.005 21.6052 20.6533 21.6055H16.8564C15.8584 21.6066 14.8587 21.6074 13.8604 21.6074L10.9834 21.6094C10.191 21.6094 9.39825 21.6092 8.60547 21.6104H6.77246C3.82832 21.448 0.941569 18.919 0.633789 15.9688C0.556517 15.2265 0.627289 14.1307 0.782227 12.8936L0.853516 12.3555L0.857422 12.3311C1.0947 10.6381 1.45541 8.79902 1.75781 7.36035L2.03418 6.0752C2.33577 4.69962 2.86101 3.55368 3.60938 2.6543C4.56244 1.50813 5.89724 0.738503 7.6582 0.425781H7.66113C7.66566 0.425025 7.6701 0.422838 7.6748 0.421875C7.76622 0.405813 7.8585 0.390144 7.95117 0.376953L23.5635 0.37207Z" fill="#AA336A" stroke="#FF9A9A" stroke-width="0.744186"/>
<path d="M29.1914 31.4219L29.1973 31.4361L29.1985 31.4373" fill="#FF9A9A"/>
<path d="M10.2874 15.7606C9.54317 15.7606 8.86844 15.6366 8.26317 15.3885C7.66782 15.1306 7.1965 14.7535 6.84922 14.2574C6.50193 13.7613 6.3134 13.151 6.28364 12.4267H8.66503C8.67495 12.7144 8.74937 12.9675 8.88829 13.1858C9.0272 13.404 9.21573 13.5777 9.45387 13.7067C9.69201 13.8258 9.96984 13.8853 10.2874 13.8853C10.5553 13.8853 10.7884 13.8456 10.9869 13.7662C11.1953 13.6769 11.359 13.5529 11.4781 13.3941C11.5971 13.2254 11.6567 13.0171 11.6567 12.769C11.6567 12.511 11.5872 12.2927 11.4483 12.1141C11.3094 11.9256 11.1208 11.7668 10.8827 11.6378C10.6446 11.4989 10.3667 11.3749 10.0492 11.2658C9.74162 11.1467 9.40922 11.0326 9.05201 10.9234C8.22844 10.6555 7.5934 10.2933 7.14689 9.83692C6.7103 9.38048 6.49201 8.77025 6.49201 8.00622C6.49201 7.37118 6.64581 6.8304 6.9534 6.38389C7.27092 5.92746 7.70255 5.58017 8.24829 5.34203C8.79402 5.10389 9.41418 4.98482 10.1088 4.98482C10.8232 4.98482 11.4532 5.10885 11.999 5.35691C12.5447 5.59505 12.9763 5.9473 13.2939 6.41366C13.6114 6.87009 13.7801 7.41583 13.7999 8.05087H11.4036C11.3937 7.83257 11.3292 7.63412 11.2101 7.45552C11.101 7.27692 10.9472 7.13304 10.7488 7.02389C10.5602 6.91474 10.337 6.86017 10.079 6.86017C9.85077 6.85025 9.6424 6.88498 9.45387 6.96436C9.27526 7.03381 9.12643 7.14792 9.00736 7.30668C8.89821 7.45552 8.84364 7.64405 8.84364 7.87226C8.84364 8.09056 8.89821 8.28405 9.00736 8.45273C9.12643 8.61149 9.28519 8.7504 9.48364 8.86947C9.69201 8.97862 9.93015 9.08281 10.1981 9.18203C10.4759 9.28126 10.7785 9.38048 11.106 9.47971C11.6319 9.65831 12.1131 9.87164 12.5497 10.1197C12.9962 10.3578 13.3534 10.6754 13.6213 11.0723C13.8991 11.4592 14.0381 11.9752 14.0381 12.6202C14.0381 13.1858 13.8892 13.7067 13.5915 14.183C13.3038 14.6592 12.8821 15.0413 12.3264 15.329C11.7807 15.6168 11.101 15.7606 10.2874 15.7606ZM19.7285 15.7606C18.7363 15.7606 17.8681 15.5423 17.1239 15.1058C16.3896 14.6592 15.8191 14.0391 15.4122 13.2453C15.0054 12.4515 14.802 11.5237 14.802 10.462C14.802 9.3904 15.0104 8.44281 15.4271 7.61924C15.8538 6.79567 16.464 6.15071 17.2578 5.68436C18.0516 5.218 18.9992 4.98482 20.1006 4.98482C21.3409 4.98482 22.3679 5.2825 23.1815 5.87785C24.0051 6.47319 24.536 7.29676 24.7741 8.34854H22.2885C22.1397 7.9318 21.8767 7.60932 21.4997 7.3811C21.1326 7.15288 20.6612 7.03878 20.0857 7.03878C19.4308 7.03878 18.8801 7.18265 18.4336 7.4704C17.9871 7.74823 17.6498 8.14513 17.4215 8.6611C17.1933 9.16715 17.0792 9.76746 17.0792 10.462C17.0792 11.1764 17.1933 11.7817 17.4215 12.2778C17.6498 12.774 17.9822 13.151 18.4188 13.409C18.8553 13.6571 19.3713 13.7811 19.9667 13.7811C20.82 13.7811 21.465 13.5578 21.9015 13.1113C22.3481 12.6648 22.6209 12.1042 22.7201 11.4295H20.2941V9.7625H24.9527V15.582H22.8988L22.7201 14.3764C22.5118 14.6741 22.2637 14.9271 21.976 15.1355C21.6981 15.3439 21.3707 15.4977 20.9936 15.5969C20.6265 15.7061 20.2048 15.7606 19.7285 15.7606Z" fill="white"/>
</g>
<defs>
<clipPath id="clip0_487_13081">
<rect width="32.7442" height="32" fill="white"/>
</clipPath>
</defs>
</svg>
